<svg id="svg" version="1.1" xmlns="http://www.w3.org/2000/svg" xmlns:xlink="http://www.w3.org/1999/xlink" width="400" height="400" viewBox="0, 0, 400,400"><g id="svgg"><path id="path0" d="M0.000 200.000 L 0.000 400.000 97.200 400.000 L 194.400 400.000 194.400 396.800 L 194.400 393.600 214.000 393.600 C 226.800 393.600,233.600 393.461,233.600 393.200 C 233.600 392.980,233.960 392.800,234.400 392.800 C 234.840 392.800,235.200 392.980,235.200 393.200 C 235.200 393.459,240.267 393.600,249.600 393.600 C 262.448 393.600,265.494 393.400,263.500 392.688 C 263.209 392.584,263.148 392.361,263.355 392.155 C 263.561 391.948,263.784 392.009,263.888 392.300 C 264.096 392.882,270.400 393.025,270.400 392.448 C 270.400 392.255,271.515 392.016,272.877 391.917 C 274.267 391.816,275.423 391.532,275.510 391.269 C 275.596 391.011,275.935 390.800,276.262 390.800 C 277.042 390.800,278.000 389.823,278.000 389.029 C 278.000 388.683,278.180 388.400,278.400 388.400 C 278.620 388.400,278.800 388.040,278.800 387.600 C 278.800 387.160,278.980 386.800,279.200 386.800 C 279.420 386.800,279.600 385.900,279.600 384.800 C 279.600 383.700,279.780 382.800,280.000 382.800 C 280.587 382.800,280.494 379.700,279.900 379.488 C 279.609 379.384,279.548 379.161,279.755 378.955 C 279.961 378.748,280.184 378.809,280.288 379.100 C 280.977 381.029,281.200 378.314,281.200 368.000 C 281.200 360.533,281.057 356.400,280.800 356.400 C 280.580 356.400,280.400 356.117,280.400 355.771 C 280.400 354.895,279.119 353.643,278.899 354.304 C 278.583 355.250,278.000 354.794,278.000 353.600 C 278.000 352.940,277.820 352.400,277.600 352.400 C 277.380 352.400,277.200 352.760,277.200 353.200 C 277.200 353.640,277.020 354.000,276.800 354.000 C 276.580 354.000,276.400 353.722,276.400 353.382 C 276.400 353.042,275.995 352.347,275.500 351.837 C 275.005 351.327,274.335 350.526,274.012 350.055 C 273.688 349.585,273.103 349.200,272.712 349.200 C 272.320 349.200,272.000 349.020,272.000 348.800 C 272.000 348.580,272.360 348.400,272.800 348.400 C 273.240 348.400,273.600 348.220,273.600 348.000 C 273.600 347.780,273.060 347.600,272.400 347.600 C 271.206 347.600,270.750 347.017,271.696 346.701 C 272.357 346.481,271.105 345.200,270.229 345.200 C 269.883 345.200,269.600 345.020,269.600 344.800 C 269.600 344.578,268.533 344.400,267.200 344.400 C 265.867 344.400,264.800 344.222,264.800 344.000 C 264.800 343.752,262.611 343.600,259.033 343.600 C 254.795 343.600,253.213 343.467,253.064 343.100 C 252.911 342.722,252.748 342.747,252.400 343.200 C 252.052 343.653,251.889 343.678,251.736 343.300 C 251.622 343.020,250.845 342.800,249.967 342.800 C 249.105 342.800,248.400 342.620,248.400 342.400 C 248.400 342.180,247.693 342.000,246.829 342.000 C 245.964 342.000,244.987 341.730,244.657 341.400 C 243.978 340.721,242.800 340.594,242.800 341.200 C 242.800 342.118,242.081 341.507,241.860 340.400 C 241.657 339.384,241.434 339.200,240.410 339.200 C 239.745 339.200,239.200 339.020,239.200 338.800 C 239.200 338.580,238.660 338.400,238.000 338.400 C 237.340 338.400,236.800 338.220,236.800 338.000 C 236.800 337.780,236.980 337.600,237.200 337.600 C 237.420 337.600,237.600 337.420,237.600 337.200 C 237.600 336.980,236.777 336.800,235.771 336.800 C 234.166 336.800,232.800 336.170,232.800 335.429 C 232.800 334.971,234.338 335.214,234.499 335.696 C 234.617 336.051,234.869 335.988,235.380 335.477 C 235.773 335.084,235.959 334.635,235.793 334.481 C 235.627 334.326,235.410 334.425,235.312 334.700 C 235.030 335.490,234.400 335.282,234.400 334.400 C 234.400 333.504,232.989 333.257,232.688 334.100 C 232.584 334.391,232.361 334.452,232.155 334.245 C 231.948 334.039,232.009 333.816,232.300 333.712 C 232.575 333.614,232.800 333.188,232.800 332.767 C 232.800 332.025,232.325 332.000,218.400 332.000 L 204.000 332.000 204.000 330.400 C 204.000 329.520,203.820 328.800,203.600 328.800 C 203.380 328.800,203.200 328.440,203.200 328.000 C 203.200 327.560,203.020 327.200,202.800 327.200 C 202.580 327.200,202.400 326.880,202.400 326.488 C 202.400 326.097,202.018 325.512,201.551 325.188 C 201.084 324.865,200.467 324.375,200.180 324.100 C 199.892 323.825,199.374 323.600,199.029 323.600 C 198.683 323.600,198.400 323.420,198.400 323.200 C 198.400 322.980,198.040 322.800,197.600 322.800 C 197.160 322.800,196.800 322.620,196.800 322.400 C 196.800 322.180,196.080 322.000,195.200 322.000 C 193.867 322.000,193.600 321.867,193.600 321.200 C 193.600 320.667,193.333 320.400,192.800 320.400 C 192.360 320.400,192.000 320.220,192.000 320.000 C 192.000 319.736,179.533 319.600,155.400 319.600 L 118.800 319.600 118.800 200.400 L 118.800 81.200 156.200 81.200 C 180.867 81.200,193.600 81.064,193.600 80.800 C 193.600 80.578,194.667 80.400,196.000 80.400 C 197.333 80.400,198.400 80.222,198.400 80.000 C 198.400 79.780,198.940 79.600,199.600 79.600 C 200.260 79.600,200.800 79.420,200.800 79.200 C 200.800 78.980,201.078 78.800,201.418 78.800 C 202.218 78.800,204.000 77.018,204.000 76.218 C 204.000 75.878,204.180 75.600,204.400 75.600 C 204.620 75.600,204.800 75.150,204.800 74.600 C 204.800 74.050,204.980 73.600,205.200 73.600 C 205.422 73.600,205.600 72.533,205.600 71.200 L 205.600 68.800 219.600 68.800 L 233.600 68.800 233.600 67.771 C 233.600 66.165,234.478 65.600,236.971 65.600 C 238.197 65.600,239.200 65.420,239.200 65.200 C 239.200 64.980,238.917 64.800,238.571 64.800 C 237.780 64.800,236.603 63.657,237.007 63.281 C 237.173 63.126,237.390 63.225,237.488 63.500 C 237.704 64.104,242.000 64.200,242.000 63.600 C 242.000 63.380,241.190 63.200,240.200 63.200 C 238.667 63.200,238.400 63.081,238.400 62.400 C 238.400 61.960,238.580 61.600,238.800 61.600 C 239.020 61.600,239.200 61.780,239.200 62.000 C 239.200 62.220,239.560 62.400,240.000 62.400 C 240.440 62.400,240.800 62.220,240.800 62.000 C 240.800 61.780,241.082 61.600,241.427 61.600 C 241.840 61.600,241.980 61.362,241.836 60.900 C 241.581 60.079,242.215 58.882,242.667 59.333 C 242.837 59.504,242.712 59.827,242.388 60.052 C 241.943 60.361,241.922 60.510,242.300 60.664 C 242.575 60.775,242.800 61.212,242.800 61.633 C 242.800 62.133,243.078 62.400,243.600 62.400 C 244.190 62.400,244.400 62.133,244.400 61.382 C 244.400 59.363,246.001 58.402,249.684 58.210 C 251.501 58.116,253.050 57.850,253.127 57.619 C 253.217 57.350,255.612 57.200,259.833 57.200 C 263.944 57.200,266.400 57.050,266.400 56.800 C 266.400 56.580,267.300 56.400,268.400 56.400 C 269.500 56.400,270.400 56.220,270.400 56.000 C 270.400 55.420,271.900 55.508,272.112 56.100 C 272.216 56.391,272.439 56.452,272.645 56.245 C 272.852 56.039,272.791 55.816,272.500 55.712 C 271.710 55.430,271.918 54.800,272.800 54.800 C 273.240 54.800,273.600 54.980,273.600 55.200 C 273.600 55.420,273.870 55.600,274.200 55.600 C 274.967 55.600,274.967 55.024,274.200 54.257 C 273.394 53.451,273.444 53.200,274.413 53.200 C 275.582 53.200,278.000 50.647,278.000 49.413 C 278.000 48.194,278.421 48.119,279.200 49.200 C 279.935 50.220,280.400 50.220,280.400 49.200 C 280.400 48.760,280.220 48.400,280.000 48.400 C 279.780 48.400,279.600 48.040,279.600 47.600 C 279.600 46.718,280.230 46.510,280.512 47.300 C 280.616 47.591,280.839 47.652,281.045 47.445 C 281.252 47.239,281.191 47.016,280.900 46.912 C 280.308 46.700,280.220 45.200,280.800 45.200 C 281.058 45.200,281.200 40.933,281.200 33.200 C 281.200 25.467,281.058 21.200,280.800 21.200 C 280.580 21.200,280.400 20.480,280.400 19.600 C 280.400 18.720,280.220 18.000,280.000 18.000 C 279.780 18.000,279.600 17.100,279.600 16.000 C 279.600 14.900,279.420 14.000,279.200 14.000 C 278.980 14.000,278.800 13.640,278.800 13.200 C 278.800 12.760,278.620 12.400,278.400 12.400 C 278.180 12.400,278.000 12.117,278.000 11.771 C 278.000 10.963,277.037 10.000,276.229 10.000 C 275.883 10.000,275.600 9.820,275.600 9.600 C 275.600 9.380,275.345 9.200,275.033 9.200 C 274.722 9.200,274.407 9.021,274.333 8.802 C 274.259 8.581,271.751 8.286,268.700 8.140 C 265.675 7.995,263.200 7.724,263.200 7.538 C 263.200 7.352,247.720 7.200,228.800 7.200 L 194.400 7.200 194.400 3.600 L 194.400 0.000 97.200 0.000 L 0.000 0.000 0.000 200.000 M354.800 20.800 C 354.800 21.020,355.160 21.200,355.600 21.200 C 356.040 21.200,356.400 21.020,356.400 20.800 C 356.400 20.580,356.040 20.400,355.600 20.400 C 355.160 20.400,354.800 20.580,354.800 20.800 M357.200 20.800 C 357.200 21.020,357.650 21.200,358.200 21.200 C 358.750 21.200,359.200 21.020,359.200 20.800 C 359.200 20.580,358.750 20.400,358.200 20.400 C 357.650 20.400,357.200 20.580,357.200 20.800 M348.060 22.642 C 347.331 23.466,347.800 23.857,348.581 23.076 C 348.921 22.736,349.200 22.354,349.200 22.229 C 349.200 21.809,348.606 22.024,348.060 22.642 M267.200 294.800 C 267.200 295.020,267.740 295.200,268.400 295.200 C 269.060 295.200,269.600 295.020,269.600 294.800 C 269.600 294.580,269.060 294.400,268.400 294.400 C 267.740 294.400,267.200 294.580,267.200 294.800 M253.200 295.600 C 253.200 295.820,253.920 296.000,254.800 296.000 C 255.680 296.000,256.400 295.820,256.400 295.600 C 256.400 295.380,255.680 295.200,254.800 295.200 C 253.920 295.200,253.200 295.380,253.200 295.600 M248.400 296.400 C 248.400 296.620,248.760 296.800,249.200 296.800 C 249.640 296.800,250.000 296.620,250.000 296.400 C 250.000 296.180,249.640 296.000,249.200 296.000 C 248.760 296.000,248.400 296.180,248.400 296.400 M235.200 338.800 C 235.200 339.020,234.840 339.200,234.400 339.200 C 233.960 339.200,233.600 339.020,233.600 338.800 C 233.600 338.580,233.960 338.400,234.400 338.400 C 234.840 338.400,235.200 338.580,235.200 338.800 M307.200 358.600 C 307.200 358.930,307.380 359.200,307.600 359.200 C 307.820 359.200,308.000 358.930,308.000 358.600 C 308.000 358.270,307.820 358.000,307.600 358.000 C 307.380 358.000,307.200 358.270,307.200 358.600 M316.400 368.400 C 316.400 368.620,316.760 368.800,317.200 368.800 C 317.640 368.800,318.000 368.620,318.000 368.400 C 318.000 368.180,317.640 368.000,317.200 368.000 C 316.760 368.000,316.400 368.180,316.400 368.400 M269.600 380.767 C 269.600 381.408,269.375 382.014,269.100 382.112 C 268.825 382.210,268.726 382.427,268.881 382.593 C 269.257 382.997,270.400 381.820,270.400 381.029 C 270.400 380.244,270.690 380.233,271.447 380.990 C 271.967 381.510,271.771 381.847,269.790 383.828 C 268.553 385.064,267.436 385.970,267.307 385.840 C 267.178 385.711,267.461 385.268,267.936 384.856 C 268.723 384.173,269.140 382.800,268.560 382.800 C 268.429 382.800,267.793 383.365,267.149 384.055 C 266.504 384.745,265.869 385.203,265.738 385.072 C 265.607 384.941,266.243 384.120,267.150 383.248 C 268.247 382.194,268.800 381.317,268.800 380.631 C 268.800 380.064,268.980 379.600,269.200 379.600 C 269.420 379.600,269.600 380.125,269.600 380.767 M276.400 382.182 C 276.400 382.522,276.220 382.800,276.000 382.800 C 275.780 382.800,275.600 383.078,275.600 383.417 C 275.600 384.080,275.383 384.379,273.131 386.813 C 272.324 387.686,271.379 388.400,271.031 388.400 C 270.684 388.400,270.400 388.580,270.400 388.800 C 270.400 389.020,270.055 389.200,269.633 389.200 C 269.212 389.200,268.786 389.425,268.688 389.700 C 268.590 389.975,268.373 390.074,268.207 389.919 C 267.803 389.543,268.980 388.400,269.771 388.400 C 270.117 388.400,270.400 388.220,270.400 388.000 C 270.400 387.780,270.684 387.600,271.031 387.600 C 271.907 387.600,274.800 384.504,274.800 383.567 C 274.800 383.145,274.980 382.800,275.200 382.800 C 275.806 382.800,275.679 381.622,275.000 380.943 C 274.670 380.613,274.400 380.168,274.400 379.953 C 274.400 379.739,274.850 380.014,275.400 380.564 C 275.950 381.114,276.400 381.842,276.400 382.182 M360.000 380.000 C 360.000 380.220,360.360 380.400,360.800 380.400 C 361.240 380.400,361.600 380.220,361.600 380.000 C 361.600 379.780,361.240 379.600,360.800 379.600 C 360.360 379.600,360.000 379.780,360.000 380.000 M273.925 381.068 C 274.411 381.554,274.457 381.781,274.096 381.901 C 273.823 381.992,273.600 382.328,273.600 382.647 C 273.600 383.338,271.028 386.000,270.360 386.000 C 270.104 386.000,269.557 386.389,269.144 386.864 C 268.732 387.339,268.287 387.620,268.154 387.488 C 268.022 387.355,269.234 385.945,270.847 384.354 C 272.492 382.731,273.565 381.388,273.290 381.297 C 273.021 381.207,272.800 380.968,272.800 380.767 C 272.800 380.220,273.178 380.321,273.925 381.068 M278.800 383.200 C 278.800 383.860,278.620 384.400,278.400 384.400 C 278.180 384.400,278.000 384.760,278.000 385.200 C 278.000 385.640,277.820 386.000,277.600 386.000 C 277.380 386.000,277.200 386.276,277.200 386.613 C 277.200 387.299,274.658 390.000,274.013 390.000 C 273.786 390.000,273.600 390.180,273.600 390.400 C 273.600 390.620,273.240 390.800,272.800 390.800 C 272.360 390.800,272.000 390.980,272.000 391.200 C 272.000 391.420,271.460 391.600,270.800 391.600 C 270.140 391.600,269.600 391.420,269.600 391.200 C 269.600 390.980,270.140 390.800,270.800 390.800 C 271.460 390.800,272.000 390.620,272.000 390.400 C 272.000 390.180,272.320 390.000,272.712 390.000 C 273.103 390.000,273.683 389.640,274.000 389.200 C 274.317 388.760,274.807 388.400,275.088 388.400 C 275.370 388.400,275.600 388.080,275.600 387.688 C 275.600 387.297,275.960 386.717,276.400 386.400 C 276.840 386.083,277.200 385.503,277.200 385.112 C 277.200 384.720,277.380 384.400,277.600 384.400 C 277.820 384.400,278.000 383.860,278.000 383.200 C 278.000 382.540,278.180 382.000,278.400 382.000 C 278.620 382.000,278.800 382.540,278.800 383.200 M253.200 384.000 C 253.200 384.220,252.840 384.400,252.400 384.400 C 251.960 384.400,251.600 384.220,251.600 384.000 C 251.600 383.780,251.960 383.600,252.400 383.600 C 252.840 383.600,253.200 383.780,253.200 384.000 M257.200 384.800 C 257.200 385.020,256.660 385.200,256.000 385.200 C 255.340 385.200,254.800 385.020,254.800 384.800 C 254.800 384.580,255.340 384.400,256.000 384.400 C 256.660 384.400,257.200 384.580,257.200 384.800 " stroke="none" fill="#2c74ec" fill-rule="evenodd"></path><path id="path1" d="M351.600 21.600 C 351.600 21.820,351.100 22.000,350.488 22.000 C 349.835 22.000,349.139 22.330,348.800 22.800 C 348.483 23.240,347.980 23.600,347.683 23.600 C 347.054 23.600,346.000 24.563,346.000 25.138 C 346.000 25.355,345.775 25.614,345.500 25.712 C 345.225 25.810,345.124 26.024,345.276 26.188 C 345.427 26.351,346.004 26.061,346.556 25.542 C 348.295 23.912,348.749 23.600,349.383 23.600 C 349.722 23.600,350.000 23.420,350.000 23.200 C 350.000 22.980,350.360 22.800,350.800 22.800 C 351.240 22.800,351.600 22.620,351.600 22.400 C 351.600 22.180,352.320 22.000,353.200 22.000 C 354.080 22.000,354.800 22.180,354.800 22.400 C 354.800 22.620,354.260 22.800,353.600 22.800 C 352.940 22.800,352.400 22.980,352.400 23.200 C 352.400 23.420,352.117 23.600,351.771 23.600 C 351.426 23.600,350.873 23.870,350.543 24.200 C 350.213 24.530,349.596 24.800,349.171 24.800 C 348.699 24.800,348.400 25.075,348.400 25.512 C 348.400 25.903,348.040 26.483,347.600 26.800 C 347.160 27.117,346.800 27.697,346.800 28.088 C 346.800 28.480,346.620 28.800,346.400 28.800 C 346.180 28.800,346.000 29.263,346.000 29.829 C 346.000 31.952,345.741 32.000,334.229 32.000 C 327.410 32.000,323.600 32.143,323.600 32.400 C 323.600 32.620,323.060 32.800,322.400 32.800 C 321.740 32.800,321.200 32.620,321.200 32.400 C 321.200 32.180,320.840 32.000,320.400 32.000 C 319.867 32.000,319.600 32.267,319.600 32.800 C 319.600 33.467,319.333 33.600,318.000 33.600 C 317.120 33.600,316.400 33.420,316.400 33.200 C 316.400 32.980,315.860 32.800,315.200 32.800 C 314.540 32.800,314.000 32.980,314.000 33.200 C 314.000 33.420,314.360 33.600,314.800 33.600 C 315.240 33.600,315.600 33.780,315.600 34.000 C 315.600 34.220,315.060 34.400,314.400 34.400 C 313.740 34.400,313.200 34.580,313.200 34.800 C 313.200 35.020,312.922 35.200,312.582 35.200 C 311.782 35.200,310.000 36.982,310.000 37.782 C 310.000 38.122,309.820 38.400,309.600 38.400 C 309.380 38.400,309.200 38.940,309.200 39.600 C 309.200 41.002,308.544 41.211,308.261 39.900 C 308.154 39.405,308.163 40.215,308.280 41.700 L 308.493 44.400 298.447 44.400 C 292.016 44.400,288.400 44.544,288.400 44.800 C 288.400 45.020,288.040 45.200,287.600 45.200 C 287.160 45.200,286.800 45.020,286.800 44.800 C 286.800 44.580,286.260 44.400,285.600 44.400 C 284.667 44.400,284.400 44.578,284.400 45.200 C 284.400 45.640,284.220 46.000,284.000 46.000 C 283.780 46.000,283.600 45.820,283.600 45.600 C 283.600 45.380,283.240 45.200,282.800 45.200 C 281.921 45.200,281.707 45.836,282.496 46.099 C 283.157 46.319,281.905 47.600,281.029 47.600 C 280.597 47.600,280.400 47.976,280.400 48.800 C 280.400 49.460,280.220 50.000,280.000 50.000 C 279.780 50.000,279.600 49.820,279.600 49.600 C 279.600 49.380,279.420 49.200,279.200 49.200 C 278.980 49.200,278.800 49.838,278.800 50.618 C 278.800 52.455,277.334 54.000,275.591 54.000 C 274.528 54.000,274.383 54.117,274.600 54.800 C 274.809 55.458,274.672 55.600,273.827 55.600 C 273.067 55.600,272.800 55.808,272.800 56.400 C 272.800 56.840,272.620 57.200,272.400 57.200 C 272.180 57.200,272.000 56.840,272.000 56.400 C 272.000 55.867,271.733 55.600,271.200 55.600 C 270.760 55.600,270.400 55.780,270.400 56.000 C 270.400 56.220,270.580 56.400,270.800 56.400 C 271.020 56.400,271.200 56.580,271.200 56.800 C 271.200 57.046,269.200 57.200,266.000 57.200 C 263.140 57.200,260.800 57.358,260.800 57.551 C 260.800 57.744,259.146 57.981,257.124 58.078 C 254.790 58.189,253.391 58.426,253.291 58.727 C 253.204 58.987,252.788 59.200,252.367 59.200 C 251.945 59.200,251.600 59.380,251.600 59.600 C 251.600 59.820,251.240 60.000,250.800 60.000 C 250.360 60.000,250.000 60.180,250.000 60.400 C 250.000 60.620,249.680 60.800,249.288 60.800 C 248.897 60.800,248.317 61.160,248.000 61.600 C 247.683 62.040,247.103 62.400,246.712 62.400 C 246.320 62.400,246.000 62.683,246.000 63.029 C 246.000 63.973,244.986 64.800,243.829 64.800 C 243.067 64.800,242.800 65.007,242.800 65.600 C 242.800 66.187,242.533 66.400,241.800 66.400 C 241.250 66.400,240.800 66.580,240.800 66.800 C 240.800 67.380,239.300 67.292,239.087 66.700 C 238.965 66.361,238.650 66.490,238.107 67.100 C 237.291 68.017,236.000 68.324,236.000 67.600 C 236.000 67.380,235.820 67.200,235.600 67.200 C 235.380 67.200,235.200 67.483,235.200 67.829 C 235.200 68.597,234.065 69.799,233.693 69.426 C 233.544 69.278,233.683 68.996,234.000 68.800 C 234.317 68.604,234.456 68.322,234.307 68.174 C 233.943 67.810,232.800 68.996,232.800 69.738 C 232.800 70.065,233.025 70.414,233.300 70.513 C 233.639 70.635,233.510 70.950,232.900 71.493 C 232.000 72.294,231.638 74.400,232.400 74.400 C 232.620 74.400,232.800 74.850,232.800 75.400 C 232.800 75.950,232.620 76.400,232.400 76.400 C 232.154 76.400,232.000 78.400,232.000 81.600 C 232.000 84.800,232.154 86.800,232.400 86.800 C 232.620 86.800,232.800 87.160,232.800 87.600 C 232.800 88.040,232.620 88.400,232.400 88.400 C 232.180 88.400,232.000 88.940,232.000 89.600 C 232.000 90.533,232.178 90.800,232.800 90.800 C 233.240 90.800,233.600 90.980,233.600 91.200 C 233.600 91.420,233.420 91.600,233.200 91.600 C 232.448 91.600,232.799 92.478,234.000 93.600 C 234.738 94.289,235.200 95.121,235.200 95.760 C 235.200 96.332,235.380 96.800,235.600 96.800 C 235.820 96.800,236.000 97.120,236.000 97.512 C 236.000 97.903,236.360 98.483,236.800 98.800 C 237.240 99.117,237.600 99.697,237.600 100.088 C 237.600 100.504,237.896 100.800,238.312 100.800 C 238.703 100.800,239.283 101.160,239.600 101.600 C 239.917 102.040,240.497 102.400,240.888 102.400 C 241.280 102.400,241.600 102.580,241.600 102.800 C 241.600 103.020,242.050 103.200,242.600 103.200 C 243.150 103.200,243.600 103.380,243.600 103.600 C 243.600 103.820,244.320 104.000,245.200 104.000 C 246.080 104.000,246.800 104.180,246.800 104.400 C 246.800 104.629,248.000 104.800,249.600 104.800 C 251.200 104.800,252.400 104.971,252.400 105.200 C 252.400 105.441,254.067 105.600,256.600 105.600 C 259.133 105.600,260.800 105.441,260.800 105.200 C 260.800 104.344,268.561 104.714,269.200 105.600 C 269.827 106.471,274.800 106.826,274.800 106.000 C 274.800 105.780,275.700 105.600,276.800 105.600 C 277.900 105.600,278.800 105.780,278.800 106.000 C 278.800 106.220,279.520 106.400,280.400 106.400 L 282.000 106.400 282.000 200.400 L 282.000 294.400 280.000 294.400 C 278.900 294.400,278.000 294.580,278.000 294.800 C 278.000 295.020,277.190 295.200,276.200 295.200 C 275.210 295.200,274.400 295.020,274.400 294.800 C 274.400 294.578,273.333 294.400,272.000 294.400 C 270.667 294.400,269.600 294.578,269.600 294.800 C 269.600 295.020,269.060 295.200,268.400 295.200 C 267.740 295.200,267.200 295.380,267.200 295.600 C 267.200 295.829,266.000 296.000,264.400 296.000 C 262.800 296.000,261.600 295.829,261.600 295.600 C 261.600 295.374,260.467 295.200,259.000 295.200 C 257.533 295.200,256.400 295.374,256.400 295.600 C 256.400 295.820,256.760 296.000,257.200 296.000 C 257.640 296.000,258.000 296.180,258.000 296.400 C 258.000 296.620,257.280 296.800,256.400 296.800 C 255.520 296.800,254.800 296.620,254.800 296.400 C 254.800 296.178,253.733 296.000,252.400 296.000 C 251.067 296.000,250.000 296.178,250.000 296.400 C 250.000 296.620,249.280 296.800,248.400 296.800 C 247.520 296.800,246.800 296.980,246.800 297.200 C 246.800 297.420,246.260 297.600,245.600 297.600 C 244.940 297.600,244.400 297.780,244.400 298.000 C 244.400 298.220,244.040 298.400,243.600 298.400 C 243.160 298.400,242.800 298.580,242.800 298.800 C 242.800 299.020,242.530 299.200,242.200 299.200 C 241.870 299.200,241.600 299.380,241.600 299.600 C 241.600 299.820,241.324 300.000,240.987 300.000 C 240.649 300.000,239.749 300.624,238.987 301.387 C 238.224 302.149,237.600 303.049,237.600 303.387 C 237.600 303.724,237.420 304.000,237.200 304.000 C 236.980 304.000,236.800 304.360,236.800 304.800 C 236.800 305.240,236.620 305.600,236.400 305.600 C 236.180 305.600,236.000 306.140,236.000 306.800 C 236.000 307.460,235.820 308.000,235.600 308.000 C 235.380 308.000,235.200 307.820,235.200 307.600 C 235.200 307.380,234.840 307.200,234.400 307.200 C 233.511 307.200,233.323 307.806,234.100 308.163 C 234.375 308.289,234.195 308.292,233.700 308.169 C 232.942 307.981,232.800 308.109,232.800 308.973 C 232.800 309.538,232.620 310.000,232.400 310.000 C 231.819 310.000,231.908 312.291,232.500 312.567 C 232.900 312.753,232.900 312.847,232.500 313.033 C 232.130 313.206,232.000 314.964,232.000 319.800 C 232.000 324.636,232.130 326.394,232.500 326.567 C 232.900 326.753,232.900 326.847,232.500 327.033 C 231.633 327.438,231.900 330.017,232.900 330.907 C 233.510 331.450,233.639 331.765,233.300 331.887 C 232.525 332.165,232.710 332.800,233.567 332.800 C 233.988 332.800,234.438 333.025,234.567 333.300 C 234.753 333.700,234.847 333.700,235.033 333.300 C 235.396 332.523,236.000 332.711,236.000 333.600 C 236.000 334.267,236.267 334.400,237.600 334.400 C 238.480 334.400,239.200 334.580,239.200 334.800 C 239.200 335.020,239.560 335.200,240.000 335.200 C 240.533 335.200,240.800 335.467,240.800 336.000 C 240.800 336.669,241.067 336.800,242.429 336.800 C 244.121 336.800,245.200 337.490,245.200 338.571 C 245.200 338.917,245.488 339.200,245.840 339.200 C 246.191 339.200,246.985 339.741,247.602 340.403 C 248.414 341.271,249.236 341.675,250.563 341.857 C 251.573 341.995,252.400 342.264,252.400 342.454 C 252.400 342.644,253.105 342.800,253.967 342.800 C 254.845 342.800,255.622 343.020,255.736 343.300 C 255.889 343.678,256.052 343.653,256.400 343.200 C 256.748 342.747,256.911 342.722,257.064 343.100 C 257.215 343.471,258.955 343.600,263.833 343.600 C 269.490 343.600,270.400 343.686,270.400 344.218 C 270.400 345.190,272.259 346.800,273.382 346.800 C 273.942 346.800,274.400 346.980,274.400 347.200 C 274.400 347.420,274.586 347.600,274.813 347.600 C 275.458 347.600,278.000 350.301,278.000 350.987 C 278.000 351.324,278.180 351.600,278.400 351.600 C 278.620 351.600,278.800 352.058,278.800 352.618 C 278.800 353.929,280.471 355.600,281.782 355.600 C 282.342 355.600,282.800 355.420,282.800 355.200 C 282.800 354.980,282.980 354.800,283.200 354.800 C 283.420 354.800,283.600 355.160,283.600 355.600 C 283.600 356.133,283.867 356.400,284.400 356.400 C 284.840 356.400,285.200 356.220,285.200 356.000 C 285.200 355.780,285.560 355.600,286.000 355.600 C 286.440 355.600,286.800 355.780,286.800 356.000 C 286.800 356.256,290.467 356.400,297.000 356.400 C 306.786 356.400,307.200 356.431,307.200 357.167 C 307.200 357.588,307.403 358.001,307.652 358.084 C 307.931 358.177,308.145 359.564,308.209 361.693 C 308.304 364.797,308.419 365.256,309.339 366.175 C 310.416 367.253,312.209 367.549,312.512 366.700 C 312.616 366.409,312.839 366.348,313.045 366.555 C 313.252 366.761,313.191 366.984,312.900 367.088 C 311.958 367.425,312.400 368.000,313.600 368.000 C 314.260 368.000,314.800 367.820,314.800 367.600 C 314.800 367.380,315.160 367.200,315.600 367.200 C 316.040 367.200,316.400 367.380,316.400 367.600 C 316.400 367.820,316.760 368.000,317.200 368.000 C 317.640 368.000,318.000 368.180,318.000 368.400 C 318.000 368.620,318.540 368.800,319.200 368.800 C 319.860 368.800,320.400 368.620,320.400 368.400 C 320.400 368.180,320.760 368.000,321.200 368.000 C 321.640 368.000,322.000 368.180,322.000 368.400 C 322.000 368.653,324.806 368.800,329.618 368.800 C 337.578 368.800,339.200 369.206,339.200 371.195 C 339.200 371.741,341.836 374.400,342.378 374.400 C 342.601 374.400,343.773 375.390,344.983 376.600 C 346.486 378.103,347.502 378.800,348.191 378.800 C 348.746 378.800,349.200 378.980,349.200 379.200 C 349.200 379.420,350.100 379.600,351.200 379.600 C 352.300 379.600,353.200 379.780,353.200 380.000 C 353.200 380.235,354.600 380.400,356.600 380.400 C 358.600 380.400,360.000 380.235,360.000 380.000 C 360.000 379.780,359.370 379.600,358.600 379.600 C 357.830 379.600,357.200 379.420,357.200 379.200 C 357.200 378.980,358.010 378.800,359.000 378.800 C 359.990 378.800,360.800 378.980,360.800 379.200 C 360.800 379.420,361.700 379.600,362.800 379.600 C 363.900 379.600,364.800 379.420,364.800 379.200 C 364.800 378.980,365.340 378.800,366.000 378.800 C 366.660 378.800,367.200 378.620,367.200 378.400 C 367.200 378.180,367.560 378.000,368.000 378.000 C 368.440 378.000,368.800 377.820,368.800 377.600 C 368.800 377.380,369.160 377.200,369.600 377.200 C 370.040 377.200,370.400 377.020,370.400 376.800 C 370.400 376.580,370.760 376.400,371.200 376.400 C 371.640 376.400,372.000 376.220,372.000 376.000 C 372.000 375.780,372.284 375.600,372.631 375.600 C 373.448 375.600,375.600 373.448,375.600 372.631 C 375.600 372.284,375.780 372.000,376.000 372.000 C 376.220 372.000,376.400 371.640,376.400 371.200 C 376.400 370.760,376.580 370.400,376.800 370.400 C 377.020 370.400,377.200 370.040,377.200 369.600 C 377.200 368.834,377.467 368.800,383.567 368.800 C 388.269 368.800,389.994 368.669,390.167 368.300 C 390.353 367.900,390.447 367.900,390.633 368.300 C 390.967 369.016,392.000 368.918,392.000 368.171 C 392.000 366.804,393.043 366.400,396.571 366.400 C 399.733 366.400,400.000 366.338,400.000 365.600 C 400.000 364.867,399.733 364.800,396.800 364.800 C 394.933 364.800,393.600 364.633,393.600 364.400 C 393.600 364.167,394.933 364.000,396.800 364.000 L 400.000 364.000 400.000 200.400 L 400.000 36.800 396.800 36.800 C 394.933 36.800,393.600 36.633,393.600 36.400 C 393.600 36.167,394.933 36.000,396.800 36.000 C 399.733 36.000,400.000 35.933,400.000 35.200 C 400.000 34.462,399.733 34.400,396.571 34.400 C 393.043 34.400,392.000 33.996,392.000 32.629 C 392.000 31.882,390.967 31.784,390.633 32.500 C 390.447 32.900,390.353 32.900,390.167 32.500 C 389.997 32.136,388.463 32.000,384.538 32.000 C 378.677 32.000,378.000 31.775,378.000 29.829 C 378.000 29.263,377.820 28.800,377.600 28.800 C 377.380 28.800,377.200 28.480,377.200 28.088 C 377.200 27.697,376.840 27.117,376.400 26.800 C 375.960 26.483,375.600 25.923,375.600 25.555 C 375.600 25.176,375.168 24.778,374.600 24.636 C 374.050 24.498,373.600 24.208,373.600 23.992 C 373.600 23.777,373.240 23.600,372.800 23.600 C 372.360 23.600,372.000 23.420,372.000 23.200 C 372.000 22.980,371.460 22.800,370.800 22.800 C 370.140 22.800,369.600 22.620,369.600 22.400 C 369.600 22.178,368.533 22.000,367.200 22.000 C 365.867 22.000,364.800 21.822,364.800 21.600 C 364.800 21.371,363.600 21.200,362.000 21.200 C 360.400 21.200,359.200 21.371,359.200 21.600 C 359.200 21.820,358.210 22.000,357.000 22.000 C 355.790 22.000,354.800 21.820,354.800 21.600 C 354.800 21.380,354.080 21.200,353.200 21.200 C 352.320 21.200,351.600 21.380,351.600 21.600 M364.800 22.400 C 364.800 22.620,365.520 22.800,366.400 22.800 C 367.280 22.800,368.000 22.980,368.000 23.200 C 368.000 23.420,368.540 23.600,369.200 23.600 C 369.860 23.600,370.400 23.764,370.400 23.965 C 370.400 24.166,371.088 24.446,371.928 24.588 C 372.802 24.735,373.702 25.200,374.028 25.672 C 374.343 26.126,374.825 26.733,375.100 27.020 C 375.375 27.308,375.600 27.826,375.600 28.171 C 375.600 28.517,375.780 28.800,376.000 28.800 C 376.220 28.800,376.400 29.160,376.400 29.600 C 376.400 30.040,376.580 30.400,376.800 30.400 C 377.020 30.400,377.200 30.760,377.200 31.200 C 377.200 31.673,376.933 32.000,376.547 32.000 C 375.787 32.000,374.400 30.530,374.400 29.725 C 374.400 29.023,371.798 26.400,371.102 26.400 C 370.813 26.400,370.318 26.041,370.002 25.602 C 369.628 25.084,368.756 24.716,367.513 24.551 C 366.461 24.411,365.600 24.140,365.600 23.948 C 365.600 23.757,365.060 23.600,364.400 23.600 C 363.740 23.600,363.200 23.420,363.200 23.200 C 363.200 22.980,362.300 22.800,361.200 22.800 C 360.100 22.800,359.200 22.620,359.200 22.400 C 359.200 22.171,360.400 22.000,362.000 22.000 C 363.600 22.000,364.800 22.171,364.800 22.400 M367.600 26.400 C 367.917 26.840,368.411 27.200,368.697 27.200 C 369.324 27.200,373.768 31.565,373.457 31.876 C 373.338 31.996,372.342 31.173,371.246 30.047 C 370.149 28.921,369.010 28.000,368.714 28.000 C 368.419 28.000,367.917 27.640,367.600 27.200 C 367.283 26.760,366.703 26.400,366.312 26.400 C 365.920 26.400,365.600 26.220,365.600 26.000 C 365.600 25.293,367.004 25.574,367.600 26.400 M311.600 34.000 C 311.600 34.220,311.317 34.400,310.971 34.400 C 310.163 34.400,309.200 35.363,309.200 36.171 C 309.200 36.517,309.020 36.800,308.800 36.800 C 308.580 36.800,308.400 37.160,308.400 37.600 C 308.400 38.040,308.580 38.400,308.800 38.400 C 309.020 38.400,309.200 38.124,309.200 37.787 C 309.200 36.991,311.791 34.400,312.587 34.400 C 312.924 34.400,313.200 34.220,313.200 34.000 C 313.200 33.780,312.840 33.600,312.400 33.600 C 311.960 33.600,311.600 33.780,311.600 34.000 M280.400 46.000 C 280.400 46.533,280.667 46.800,281.200 46.800 C 282.147 46.800,282.204 46.547,281.429 45.771 C 280.653 44.996,280.400 45.053,280.400 46.000 M246.800 102.000 C 246.800 102.220,247.160 102.400,247.600 102.400 C 248.040 102.400,248.400 102.580,248.400 102.800 C 248.400 103.394,247.227 103.284,246.571 102.629 C 245.901 101.958,245.842 101.600,246.400 101.600 C 246.620 101.600,246.800 101.780,246.800 102.000 M251.600 103.600 C 251.600 103.820,251.060 104.000,250.400 104.000 C 249.740 104.000,249.200 103.820,249.200 103.600 C 249.200 103.380,249.740 103.200,250.400 103.200 C 251.060 103.200,251.600 103.380,251.600 103.600 M256.400 104.400 C 256.400 104.620,255.500 104.800,254.400 104.800 C 253.300 104.800,252.400 104.620,252.400 104.400 C 252.400 104.180,253.300 104.000,254.400 104.000 C 255.500 104.000,256.400 104.180,256.400 104.400 M253.200 297.200 C 253.200 297.420,252.480 297.600,251.600 297.600 C 250.720 297.600,250.000 297.780,250.000 298.000 C 250.000 298.220,249.640 298.400,249.200 298.400 C 248.760 298.400,248.400 298.580,248.400 298.800 C 248.400 299.020,248.121 299.200,247.781 299.200 C 247.205 299.200,243.088 303.188,240.800 305.963 C 240.137 306.767,239.429 307.180,238.700 307.188 C 237.399 307.202,237.296 306.795,238.400 306.000 C 238.840 305.683,239.200 305.187,239.200 304.898 C 239.200 304.331,241.765 301.600,242.298 301.600 C 242.477 301.600,242.883 301.240,243.200 300.800 C 243.517 300.360,244.057 300.000,244.400 300.000 C 244.743 300.000,245.283 299.640,245.600 299.200 C 245.917 298.760,246.497 298.400,246.888 298.400 C 247.280 298.400,247.600 298.220,247.600 298.000 C 247.600 297.780,248.140 297.600,248.800 297.600 C 249.460 297.600,250.000 297.420,250.000 297.200 C 250.000 296.980,250.720 296.800,251.600 296.800 C 252.480 296.800,253.200 296.980,253.200 297.200 M272.800 345.200 C 272.800 345.640,272.620 346.000,272.400 346.000 C 272.180 346.000,272.000 345.640,272.000 345.200 C 272.000 344.760,272.180 344.400,272.400 344.400 C 272.620 344.400,272.800 344.760,272.800 345.200 M281.200 353.600 C 281.200 353.820,280.840 354.000,280.400 354.000 C 279.960 354.000,279.600 353.820,279.600 353.600 C 279.600 353.380,279.960 353.200,280.400 353.200 C 280.840 353.200,281.200 353.380,281.200 353.600 M310.661 365.024 C 311.224 365.588,311.587 366.147,311.467 366.267 C 311.249 366.484,309.200 364.632,309.200 364.218 C 309.200 363.772,309.665 364.028,310.661 365.024 M375.600 369.200 C 375.600 369.420,375.423 369.600,375.208 369.600 C 374.992 369.600,374.694 370.084,374.545 370.676 C 374.231 371.929,371.899 374.400,371.032 374.400 C 370.704 374.400,369.986 374.850,369.436 375.400 C 368.886 375.950,368.198 376.400,367.906 376.400 C 367.615 376.400,367.117 376.760,366.800 377.200 C 366.461 377.670,365.765 378.000,365.112 378.000 C 364.500 378.000,364.000 378.180,364.000 378.400 C 364.000 378.620,363.460 378.800,362.800 378.800 C 362.140 378.800,361.600 378.620,361.600 378.400 C 361.600 378.180,362.140 378.000,362.800 378.000 C 363.460 378.000,364.000 377.820,364.000 377.600 C 364.000 377.380,364.320 377.200,364.712 377.200 C 365.103 377.200,365.683 376.840,366.000 376.400 C 366.317 375.960,366.897 375.600,367.288 375.600 C 367.680 375.600,368.000 375.417,368.000 375.194 C 368.000 374.366,373.795 368.862,374.700 368.831 C 375.195 368.814,375.600 368.980,375.600 369.200 M347.600 376.000 C 348.217 376.660,349.009 377.200,349.360 377.200 C 349.712 377.200,350.000 377.380,350.000 377.600 C 350.000 377.820,350.540 378.000,351.200 378.000 C 351.860 378.000,352.400 378.180,352.400 378.400 C 352.400 378.620,351.860 378.800,351.200 378.800 C 350.540 378.800,350.000 378.620,350.000 378.400 C 350.000 378.180,349.724 378.000,349.387 378.000 C 348.825 378.000,346.000 375.509,346.000 375.013 C 346.000 374.533,346.541 374.866,347.600 376.000 M356.400 379.200 C 356.400 379.420,355.680 379.600,354.800 379.600 C 353.920 379.600,353.200 379.420,353.200 379.200 C 353.200 378.980,353.920 378.800,354.800 378.800 C 355.680 378.800,356.400 378.980,356.400 379.200 M276.060 386.642 C 275.331 387.466,275.800 387.857,276.581 387.076 C 276.921 386.736,277.200 386.354,277.200 386.229 C 277.200 385.809,276.606 386.024,276.060 386.642 M274.100 389.023 C 273.511 389.663,273.462 390.000,273.957 390.000 C 274.298 390.000,274.937 388.796,274.709 388.583 C 274.649 388.527,274.375 388.725,274.100 389.023 M233.600 393.200 C 233.600 393.420,233.960 393.600,234.400 393.600 C 234.840 393.600,235.200 393.420,235.200 393.200 C 235.200 392.980,234.840 392.800,234.400 392.800 C 233.960 392.800,233.600 392.980,233.600 393.200 " stroke="none" fill="#2cea9c" fill-rule="evenodd"></path><path id="path2" d="M354.800 21.600 C 354.800 21.820,354.080 22.000,353.200 22.000 C 352.320 22.000,351.600 22.180,351.600 22.400 C 351.600 22.620,351.240 22.800,350.800 22.800 C 350.360 22.800,350.000 22.980,350.000 23.200 C 350.000 23.420,349.722 23.600,349.383 23.600 C 349.044 23.600,348.549 23.779,348.283 23.999 C 345.915 25.953,345.200 26.825,345.200 27.760 C 345.200 28.332,345.020 28.800,344.800 28.800 C 344.580 28.800,344.400 29.340,344.400 30.000 C 344.400 30.660,344.220 31.200,344.000 31.200 C 343.780 31.200,343.600 31.380,343.600 31.600 C 343.600 32.194,344.773 32.084,345.429 31.429 C 345.743 31.114,346.000 30.394,346.000 29.829 C 346.000 29.263,346.180 28.800,346.400 28.800 C 346.620 28.800,346.800 28.480,346.800 28.088 C 346.800 27.697,347.160 27.117,347.600 26.800 C 348.040 26.483,348.400 25.903,348.400 25.512 C 348.400 25.075,348.699 24.800,349.171 24.800 C 349.596 24.800,350.213 24.530,350.543 24.200 C 350.873 23.870,351.426 23.600,351.771 23.600 C 352.117 23.600,352.400 23.420,352.400 23.200 C 352.400 22.980,352.940 22.800,353.600 22.800 C 354.260 22.800,354.800 22.620,354.800 22.400 C 354.800 22.180,355.790 22.000,357.000 22.000 C 358.210 22.000,359.200 22.180,359.200 22.400 C 359.200 22.620,360.100 22.800,361.200 22.800 C 362.300 22.800,363.200 22.980,363.200 23.200 C 363.200 23.420,363.740 23.600,364.400 23.600 C 365.060 23.600,365.600 23.757,365.600 23.948 C 365.600 24.140,366.461 24.411,367.513 24.551 C 368.756 24.716,369.628 25.084,370.002 25.602 C 370.318 26.041,370.813 26.400,371.102 26.400 C 371.798 26.400,374.400 29.023,374.400 29.725 C 374.400 30.530,375.787 32.000,376.547 32.000 C 376.933 32.000,377.200 31.673,377.200 31.200 C 377.200 30.760,377.020 30.400,376.800 30.400 C 376.580 30.400,376.400 30.040,376.400 29.600 C 376.400 29.160,376.220 28.800,376.000 28.800 C 375.780 28.800,375.600 28.517,375.600 28.171 C 375.600 27.826,375.375 27.308,375.100 27.020 C 374.825 26.733,374.343 26.126,374.028 25.672 C 373.702 25.200,372.802 24.735,371.928 24.588 C 371.088 24.446,370.400 24.166,370.400 23.965 C 370.400 23.764,369.860 23.600,369.200 23.600 C 368.540 23.600,368.000 23.420,368.000 23.200 C 368.000 22.980,367.280 22.800,366.400 22.800 C 365.520 22.800,364.800 22.620,364.800 22.400 C 364.800 22.171,363.600 22.000,362.000 22.000 C 360.400 22.000,359.200 21.829,359.200 21.600 C 359.200 21.380,358.210 21.200,357.000 21.200 C 355.790 21.200,354.800 21.380,354.800 21.600 M365.600 26.000 C 365.600 26.220,365.920 26.400,366.312 26.400 C 366.703 26.400,367.283 26.760,367.600 27.200 C 367.917 27.640,368.419 28.000,368.714 28.000 C 369.010 28.000,370.149 28.921,371.246 30.047 C 372.342 31.173,373.338 31.996,373.457 31.876 C 373.768 31.565,369.324 27.200,368.697 27.200 C 368.411 27.200,367.917 26.840,367.600 26.400 C 367.004 25.574,365.600 25.293,365.600 26.000 M321.200 32.400 C 321.200 32.620,321.740 32.800,322.400 32.800 C 323.060 32.800,323.600 32.620,323.600 32.400 C 323.600 32.180,323.060 32.000,322.400 32.000 C 321.740 32.000,321.200 32.180,321.200 32.400 M316.400 33.200 C 316.400 33.420,317.120 33.600,318.000 33.600 C 318.880 33.600,319.600 33.420,319.600 33.200 C 319.600 32.980,318.880 32.800,318.000 32.800 C 317.120 32.800,316.400 32.980,316.400 33.200 M392.000 33.029 C 392.000 33.453,393.236 34.497,393.467 34.267 C 393.592 34.141,393.417 33.760,393.076 33.419 C 392.441 32.784,392.000 32.624,392.000 33.029 M313.200 34.000 C 313.200 34.220,312.924 34.400,312.587 34.400 C 311.791 34.400,309.200 36.991,309.200 37.787 C 309.200 38.124,309.020 38.400,308.800 38.400 C 308.580 38.400,308.400 38.940,308.400 39.600 C 308.400 40.260,308.580 40.800,308.800 40.800 C 309.020 40.800,309.200 40.260,309.200 39.600 C 309.200 38.940,309.380 38.400,309.600 38.400 C 309.820 38.400,310.000 38.122,310.000 37.782 C 310.000 36.982,311.782 35.200,312.582 35.200 C 312.922 35.200,313.200 35.020,313.200 34.800 C 313.200 34.580,313.740 34.400,314.400 34.400 C 315.060 34.400,315.600 34.220,315.600 34.000 C 315.600 33.780,315.060 33.600,314.400 33.600 C 313.740 33.600,313.200 33.780,313.200 34.000 M393.600 36.400 C 393.600 36.633,394.933 36.800,396.800 36.800 C 398.667 36.800,400.000 36.633,400.000 36.400 C 400.000 36.167,398.667 36.000,396.800 36.000 C 394.933 36.000,393.600 36.167,393.600 36.400 M308.101 43.000 C 308.105 43.880,308.187 44.193,308.283 43.695 C 308.379 43.198,308.375 42.478,308.275 42.095 C 308.175 41.713,308.096 42.120,308.101 43.000 M286.800 44.800 C 286.800 45.020,287.160 45.200,287.600 45.200 C 288.040 45.200,288.400 45.020,288.400 44.800 C 288.400 44.580,288.040 44.400,287.600 44.400 C 287.160 44.400,286.800 44.580,286.800 44.800 M281.660 46.642 C 280.931 47.466,281.400 47.857,282.181 47.076 C 282.521 46.736,282.800 46.354,282.800 46.229 C 282.800 45.809,282.206 46.024,281.660 46.642 M279.600 47.600 C 279.600 48.040,279.780 48.400,280.000 48.400 C 280.220 48.400,280.400 48.040,280.400 47.600 C 280.400 47.160,280.220 46.800,280.000 46.800 C 279.780 46.800,279.600 47.160,279.600 47.600 M278.000 49.413 C 278.000 50.647,275.582 53.200,274.413 53.200 C 273.966 53.200,273.600 53.380,273.600 53.600 C 273.600 54.469,276.810 54.027,277.818 53.018 C 278.834 52.003,279.288 48.400,278.400 48.400 C 278.180 48.400,278.000 48.856,278.000 49.413 M272.000 55.200 C 272.000 55.420,272.360 55.600,272.800 55.600 C 273.240 55.600,273.600 55.420,273.600 55.200 C 273.600 54.980,273.240 54.800,272.800 54.800 C 272.360 54.800,272.000 54.980,272.000 55.200 M253.127 57.619 C 253.050 57.850,251.501 58.116,249.684 58.210 C 246.001 58.402,244.400 59.363,244.400 61.382 C 244.400 62.133,244.190 62.400,243.600 62.400 C 243.078 62.400,242.800 62.133,242.800 61.633 C 242.800 61.212,242.575 60.775,242.300 60.664 C 241.922 60.510,241.943 60.361,242.388 60.052 C 242.712 59.827,242.837 59.504,242.667 59.333 C 242.215 58.882,241.581 60.079,241.836 60.900 C 241.980 61.362,241.840 61.600,241.427 61.600 C 241.082 61.600,240.800 61.780,240.800 62.000 C 240.800 62.220,240.440 62.400,240.000 62.400 C 239.560 62.400,239.200 62.220,239.200 62.000 C 239.200 61.780,239.020 61.600,238.800 61.600 C 238.580 61.600,238.400 61.960,238.400 62.400 C 238.400 63.081,238.667 63.200,240.200 63.200 C 241.190 63.200,242.000 63.380,242.000 63.600 C 242.000 64.200,237.704 64.104,237.488 63.500 C 237.390 63.225,237.173 63.126,237.007 63.281 C 236.603 63.657,237.780 64.800,238.571 64.800 C 238.917 64.800,239.200 64.980,239.200 65.200 C 239.200 65.420,238.197 65.600,236.971 65.600 C 234.678 65.600,233.600 66.166,233.600 67.371 C 233.600 68.118,235.042 68.225,235.336 67.500 C 235.489 67.122,235.652 67.147,236.000 67.600 C 236.348 68.053,236.511 68.078,236.664 67.700 C 236.775 67.425,237.197 67.200,237.600 67.200 C 238.003 67.200,238.438 66.975,238.567 66.700 C 238.753 66.300,238.847 66.300,239.033 66.700 C 239.310 67.293,240.800 67.377,240.800 66.800 C 240.800 66.580,241.250 66.400,241.800 66.400 C 242.533 66.400,242.800 66.187,242.800 65.600 C 242.800 65.007,243.067 64.800,243.829 64.800 C 244.986 64.800,246.000 63.973,246.000 63.029 C 246.000 62.683,246.320 62.400,246.712 62.400 C 247.103 62.400,247.683 62.040,248.000 61.600 C 248.317 61.160,248.897 60.800,249.288 60.800 C 249.680 60.800,250.000 60.620,250.000 60.400 C 250.000 60.180,250.360 60.000,250.800 60.000 C 251.240 60.000,251.600 59.820,251.600 59.600 C 251.600 59.380,251.945 59.200,252.367 59.200 C 252.788 59.200,253.204 58.987,253.291 58.727 C 253.391 58.426,254.790 58.189,257.124 58.078 C 259.146 57.981,260.800 57.744,260.800 57.551 C 260.800 57.041,253.298 57.107,253.127 57.619 M232.000 75.400 C 232.000 75.950,232.180 76.400,232.400 76.400 C 232.620 76.400,232.800 75.950,232.800 75.400 C 232.800 74.850,232.620 74.400,232.400 74.400 C 232.180 74.400,232.000 74.850,232.000 75.400 M232.000 87.600 C 232.000 88.040,232.180 88.400,232.400 88.400 C 232.620 88.400,232.800 88.040,232.800 87.600 C 232.800 87.160,232.620 86.800,232.400 86.800 C 232.180 86.800,232.000 87.160,232.000 87.600 M246.000 101.829 C 246.000 101.954,246.257 102.314,246.571 102.629 C 247.227 103.284,248.400 103.394,248.400 102.800 C 248.400 102.580,248.040 102.400,247.600 102.400 C 247.160 102.400,246.800 102.220,246.800 102.000 C 246.800 101.780,246.620 101.600,246.400 101.600 C 246.180 101.600,246.000 101.703,246.000 101.829 M249.200 103.600 C 249.200 103.820,249.740 104.000,250.400 104.000 C 251.060 104.000,251.600 103.820,251.600 103.600 C 251.600 103.380,251.060 103.200,250.400 103.200 C 249.740 103.200,249.200 103.380,249.200 103.600 M252.400 104.400 C 252.400 104.620,253.300 104.800,254.400 104.800 C 255.500 104.800,256.400 104.620,256.400 104.400 C 256.400 104.180,255.500 104.000,254.400 104.000 C 253.300 104.000,252.400 104.180,252.400 104.400 M260.800 105.200 C 260.800 105.440,262.400 105.600,264.800 105.600 C 267.200 105.600,268.800 105.440,268.800 105.200 C 268.800 104.960,267.200 104.800,264.800 104.800 C 262.400 104.800,260.800 104.960,260.800 105.200 M274.800 106.000 C 274.800 106.220,275.700 106.400,276.800 106.400 C 277.900 106.400,278.800 106.220,278.800 106.000 C 278.800 105.780,277.900 105.600,276.800 105.600 C 275.700 105.600,274.800 105.780,274.800 106.000 M274.400 294.800 C 274.400 295.020,275.210 295.200,276.200 295.200 C 277.190 295.200,278.000 295.020,278.000 294.800 C 278.000 294.580,277.190 294.400,276.200 294.400 C 275.210 294.400,274.400 294.580,274.400 294.800 M261.600 295.600 C 261.600 295.829,262.800 296.000,264.400 296.000 C 266.000 296.000,267.200 295.829,267.200 295.600 C 267.200 295.371,266.000 295.200,264.400 295.200 C 262.800 295.200,261.600 295.371,261.600 295.600 M254.800 296.400 C 254.800 296.620,255.520 296.800,256.400 296.800 C 257.280 296.800,258.000 296.620,258.000 296.400 C 258.000 296.180,257.280 296.000,256.400 296.000 C 255.520 296.000,254.800 296.180,254.800 296.400 M250.000 297.200 C 250.000 297.420,249.460 297.600,248.800 297.600 C 248.140 297.600,247.600 297.780,247.600 298.000 C 247.600 298.220,247.280 298.400,246.888 298.400 C 246.497 298.400,245.917 298.760,245.600 299.200 C 245.283 299.640,244.743 300.000,244.400 300.000 C 244.057 300.000,243.517 300.360,243.200 300.800 C 242.883 301.240,242.477 301.600,242.298 301.600 C 241.765 301.600,239.200 304.331,239.200 304.898 C 239.200 305.187,238.840 305.683,238.400 306.000 C 237.296 306.795,237.399 307.202,238.700 307.188 C 239.429 307.180,240.137 306.767,240.800 305.963 C 243.088 303.188,247.205 299.200,247.781 299.200 C 248.121 299.200,248.400 299.020,248.400 298.800 C 248.400 298.580,248.760 298.400,249.200 298.400 C 249.640 298.400,250.000 298.220,250.000 298.000 C 250.000 297.780,250.720 297.600,251.600 297.600 C 252.480 297.600,253.200 297.420,253.200 297.200 C 253.200 296.980,252.480 296.800,251.600 296.800 C 250.720 296.800,250.000 296.980,250.000 297.200 M232.460 333.442 C 232.162 333.778,232.052 334.176,232.214 334.326 C 232.377 334.477,232.590 334.375,232.688 334.100 C 232.989 333.257,234.400 333.504,234.400 334.400 C 234.400 334.840,234.503 335.200,234.629 335.200 C 235.098 335.200,236.000 334.035,236.000 333.429 C 236.000 332.678,235.363 332.594,235.033 333.300 C 234.847 333.700,234.753 333.700,234.567 333.300 C 234.249 332.620,233.119 332.696,232.460 333.442 M235.454 335.305 C 234.948 335.912,234.648 336.039,234.521 335.700 C 234.339 335.214,232.800 334.971,232.800 335.429 C 232.800 336.170,234.166 336.800,235.771 336.800 C 236.777 336.800,237.600 336.980,237.600 337.200 C 237.600 337.420,237.420 337.600,237.200 337.600 C 236.980 337.600,236.800 337.780,236.800 338.000 C 236.800 338.220,237.340 338.400,238.000 338.400 C 238.660 338.400,239.200 338.580,239.200 338.800 C 239.200 339.020,239.745 339.200,240.410 339.200 C 241.434 339.200,241.657 339.384,241.860 340.400 C 242.081 341.507,242.800 342.118,242.800 341.200 C 242.800 340.594,243.978 340.721,244.657 341.400 C 244.987 341.730,245.964 342.000,246.829 342.000 C 247.693 342.000,248.400 342.180,248.400 342.400 C 248.400 342.620,249.120 342.800,250.000 342.800 C 250.880 342.800,251.600 342.980,251.600 343.200 C 251.600 343.420,251.780 343.600,252.000 343.600 C 253.469 343.600,252.219 342.084,250.563 341.857 C 249.236 341.675,248.414 341.271,247.602 340.403 C 246.985 339.741,246.191 339.200,245.840 339.200 C 245.488 339.200,245.200 338.917,245.200 338.571 C 245.200 337.490,244.121 336.800,242.429 336.800 C 241.067 336.800,240.800 336.669,240.800 336.000 C 240.800 335.467,240.533 335.200,240.000 335.200 C 239.560 335.200,239.200 335.020,239.200 334.800 C 239.200 333.976,236.228 334.377,235.454 335.305 M233.600 338.800 C 233.600 339.020,233.960 339.200,234.400 339.200 C 234.840 339.200,235.200 339.020,235.200 338.800 C 235.200 338.580,234.840 338.400,234.400 338.400 C 233.960 338.400,233.600 338.580,233.600 338.800 M253.200 343.200 C 253.200 343.420,253.740 343.600,254.400 343.600 C 255.060 343.600,255.600 343.420,255.600 343.200 C 255.600 342.980,255.060 342.800,254.400 342.800 C 253.740 342.800,253.200 342.980,253.200 343.200 M272.000 345.200 C 272.000 345.640,272.180 346.000,272.400 346.000 C 272.620 346.000,272.800 345.640,272.800 345.200 C 272.800 344.760,272.620 344.400,272.400 344.400 C 272.180 344.400,272.000 344.760,272.000 345.200 M271.200 347.200 C 271.200 347.420,271.740 347.600,272.400 347.600 C 273.060 347.600,273.600 347.780,273.600 348.000 C 273.600 348.220,273.240 348.400,272.800 348.400 C 272.360 348.400,272.000 348.580,272.000 348.800 C 272.000 349.020,272.320 349.200,272.712 349.200 C 273.103 349.200,273.688 349.585,274.012 350.055 C 274.335 350.526,275.005 351.327,275.500 351.837 C 275.995 352.347,276.400 353.042,276.400 353.382 C 276.400 353.722,276.580 354.000,276.800 354.000 C 277.020 354.000,277.200 353.640,277.200 353.200 C 277.200 352.760,277.380 352.400,277.600 352.400 C 277.820 352.400,278.000 352.940,278.000 353.600 C 278.000 354.260,278.180 354.800,278.400 354.800 C 278.620 354.800,278.800 354.080,278.800 353.200 C 278.800 352.320,278.620 351.600,278.400 351.600 C 278.180 351.600,278.000 351.324,278.000 350.987 C 278.000 350.301,275.458 347.600,274.813 347.600 C 274.586 347.600,274.400 347.420,274.400 347.200 C 274.400 346.980,273.680 346.800,272.800 346.800 C 271.920 346.800,271.200 346.980,271.200 347.200 M279.600 353.600 C 279.600 353.820,279.960 354.000,280.400 354.000 C 280.840 354.000,281.200 353.820,281.200 353.600 C 281.200 353.380,280.840 353.200,280.400 353.200 C 279.960 353.200,279.600 353.380,279.600 353.600 M285.200 356.000 C 285.200 356.220,285.560 356.400,286.000 356.400 C 286.440 356.400,286.800 356.220,286.800 356.000 C 286.800 355.780,286.440 355.600,286.000 355.600 C 285.560 355.600,285.200 355.780,285.200 356.000 M309.200 364.218 C 309.200 364.632,311.249 366.484,311.467 366.267 C 311.587 366.147,311.224 365.588,310.661 365.024 C 309.665 364.028,309.200 363.772,309.200 364.218 M393.600 364.400 C 393.600 364.633,394.933 364.800,396.800 364.800 C 398.667 364.800,400.000 364.633,400.000 364.400 C 400.000 364.167,398.667 364.000,396.800 364.000 C 394.933 364.000,393.600 364.167,393.600 364.400 M392.460 367.042 C 391.731 367.866,392.200 368.257,392.981 367.476 C 393.321 367.136,393.600 366.754,393.600 366.629 C 393.600 366.209,393.006 366.424,392.460 367.042 M314.800 367.600 C 314.800 367.820,315.160 368.000,315.600 368.000 C 316.040 368.000,316.400 367.820,316.400 367.600 C 316.400 367.380,316.040 367.200,315.600 367.200 C 315.160 367.200,314.800 367.380,314.800 367.600 M320.400 368.400 C 320.400 368.620,320.760 368.800,321.200 368.800 C 321.640 368.800,322.000 368.620,322.000 368.400 C 322.000 368.180,321.640 368.000,321.200 368.000 C 320.760 368.000,320.400 368.180,320.400 368.400 M370.900 371.825 C 369.305 373.455,368.000 374.971,368.000 375.194 C 368.000 375.417,367.680 375.600,367.288 375.600 C 366.897 375.600,366.317 375.960,366.000 376.400 C 365.683 376.840,365.103 377.200,364.712 377.200 C 364.320 377.200,364.000 377.380,364.000 377.600 C 364.000 377.820,363.460 378.000,362.800 378.000 C 362.140 378.000,361.600 378.180,361.600 378.400 C 361.600 378.620,362.140 378.800,362.800 378.800 C 363.460 378.800,364.000 378.620,364.000 378.400 C 364.000 378.180,364.500 378.000,365.112 378.000 C 365.765 378.000,366.461 377.670,366.800 377.200 C 367.117 376.760,367.615 376.400,367.906 376.400 C 368.198 376.400,368.886 375.950,369.436 375.400 C 369.986 374.850,370.704 374.400,371.032 374.400 C 371.899 374.400,374.231 371.929,374.545 370.676 C 374.694 370.084,374.992 369.600,375.208 369.600 C 375.423 369.600,375.600 369.420,375.600 369.200 C 375.600 367.973,373.548 369.119,370.900 371.825 M346.000 375.013 C 346.000 375.509,348.825 378.000,349.387 378.000 C 349.724 378.000,350.000 378.180,350.000 378.400 C 350.000 378.620,350.540 378.800,351.200 378.800 C 351.860 378.800,352.400 378.620,352.400 378.400 C 352.400 378.180,351.860 378.000,351.200 378.000 C 350.540 378.000,350.000 377.820,350.000 377.600 C 350.000 377.380,349.712 377.200,349.360 377.200 C 349.009 377.200,348.217 376.660,347.600 376.000 C 346.541 374.866,346.000 374.533,346.000 375.013 M353.200 379.200 C 353.200 379.420,353.920 379.600,354.800 379.600 C 355.680 379.600,356.400 379.420,356.400 379.200 C 356.400 378.980,355.680 378.800,354.800 378.800 C 353.920 378.800,353.200 378.980,353.200 379.200 M357.200 379.200 C 357.200 379.420,358.010 379.600,359.000 379.600 C 359.990 379.600,360.800 379.420,360.800 379.200 C 360.800 378.980,359.990 378.800,359.000 378.800 C 358.010 378.800,357.200 378.980,357.200 379.200 M268.800 380.631 C 268.800 381.317,268.247 382.194,267.150 383.248 C 266.243 384.120,265.607 384.941,265.738 385.072 C 265.869 385.203,266.504 384.745,267.149 384.055 C 267.793 383.365,268.429 382.800,268.560 382.800 C 269.140 382.800,268.723 384.173,267.936 384.856 C 267.461 385.268,267.178 385.711,267.307 385.840 C 267.436 385.970,268.553 385.064,269.790 383.828 C 271.771 381.847,271.967 381.510,271.447 380.990 C 270.690 380.233,270.400 380.244,270.400 381.029 C 270.400 381.820,269.257 382.997,268.881 382.593 C 268.726 382.427,268.825 382.210,269.100 382.112 C 269.691 381.901,269.783 379.600,269.200 379.600 C 268.980 379.600,268.800 380.064,268.800 380.631 M274.400 379.953 C 274.400 380.168,274.670 380.613,275.000 380.943 C 275.679 381.622,275.806 382.800,275.200 382.800 C 274.980 382.800,274.800 383.145,274.800 383.567 C 274.800 384.504,271.907 387.600,271.031 387.600 C 270.684 387.600,270.400 387.780,270.400 388.000 C 270.400 388.220,270.117 388.400,269.771 388.400 C 268.980 388.400,267.803 389.543,268.207 389.919 C 268.373 390.074,268.590 389.975,268.688 389.700 C 268.786 389.425,269.212 389.200,269.633 389.200 C 270.055 389.200,270.400 389.020,270.400 388.800 C 270.400 388.580,270.684 388.400,271.031 388.400 C 271.379 388.400,272.324 387.686,273.131 386.813 C 275.383 384.379,275.600 384.080,275.600 383.417 C 275.600 383.078,275.780 382.800,276.000 382.800 C 276.738 382.800,276.409 381.573,275.400 380.564 C 274.850 380.014,274.400 379.739,274.400 379.953 M272.800 380.767 C 272.800 380.968,273.021 381.207,273.290 381.297 C 273.565 381.388,272.492 382.731,270.847 384.354 C 269.234 385.945,268.022 387.355,268.154 387.488 C 268.287 387.620,268.732 387.339,269.144 386.864 C 269.557 386.389,270.104 386.000,270.360 386.000 C 271.028 386.000,273.600 383.338,273.600 382.647 C 273.600 382.328,273.823 381.992,274.096 381.901 C 274.457 381.781,274.411 381.554,273.925 381.068 C 273.178 380.321,272.800 380.220,272.800 380.767 M278.000 383.600 C 278.000 384.040,278.180 384.400,278.400 384.400 C 278.620 384.400,278.800 384.040,278.800 383.600 C 278.800 383.160,278.620 382.800,278.400 382.800 C 278.180 382.800,278.000 383.160,278.000 383.600 M251.600 384.000 C 251.600 384.220,251.960 384.400,252.400 384.400 C 252.840 384.400,253.200 384.220,253.200 384.000 C 253.200 383.780,252.840 383.600,252.400 383.600 C 251.960 383.600,251.600 383.780,251.600 384.000 M254.800 384.800 C 254.800 385.020,255.340 385.200,256.000 385.200 C 256.660 385.200,257.200 385.020,257.200 384.800 C 257.200 384.580,256.660 384.400,256.000 384.400 C 255.340 384.400,254.800 384.580,254.800 384.800 M275.500 388.066 C 273.913 389.847,274.145 390.281,275.800 388.627 C 276.570 387.857,277.200 387.131,277.200 387.013 C 277.200 386.500,276.519 386.922,275.500 388.066 M270.400 391.200 C 270.400 391.420,270.760 391.600,271.200 391.600 C 271.640 391.600,272.000 391.420,272.000 391.200 C 272.000 390.980,271.640 390.800,271.200 390.800 C 270.760 390.800,270.400 390.980,270.400 391.200 " stroke="none" fill="#2c90f0" fill-rule="evenodd"></path><path id="path3" d="M354.800 21.600 C 354.800 21.820,354.080 22.000,353.200 22.000 C 352.320 22.000,351.600 22.180,351.600 22.400 C 351.600 22.620,351.240 22.800,350.800 22.800 C 350.360 22.800,350.000 22.980,350.000 23.200 C 350.000 23.420,349.722 23.600,349.383 23.600 C 349.044 23.600,348.549 23.779,348.283 23.999 C 345.915 25.953,345.200 26.825,345.200 27.760 C 345.200 28.332,345.020 28.800,344.800 28.800 C 344.580 28.800,344.400 29.340,344.400 30.000 C 344.400 30.660,344.220 31.200,344.000 31.200 C 343.780 31.200,343.600 31.380,343.600 31.600 C 343.600 32.194,344.773 32.084,345.429 31.429 C 345.743 31.114,346.000 30.394,346.000 29.829 C 346.000 29.263,346.180 28.800,346.400 28.800 C 346.620 28.800,346.800 28.480,346.800 28.088 C 346.800 27.697,347.160 27.117,347.600 26.800 C 348.040 26.483,348.400 25.903,348.400 25.512 C 348.400 25.075,348.699 24.800,349.171 24.800 C 349.596 24.800,350.213 24.530,350.543 24.200 C 350.873 23.870,351.426 23.600,351.771 23.600 C 352.117 23.600,352.400 23.420,352.400 23.200 C 352.400 22.980,352.940 22.800,353.600 22.800 C 354.260 22.800,354.800 22.620,354.800 22.400 C 354.800 22.180,355.790 22.000,357.000 22.000 C 358.210 22.000,359.200 22.180,359.200 22.400 C 359.200 22.620,360.100 22.800,361.200 22.800 C 362.300 22.800,363.200 22.980,363.200 23.200 C 363.200 23.420,363.740 23.600,364.400 23.600 C 365.060 23.600,365.600 23.757,365.600 23.948 C 365.600 24.140,366.461 24.411,367.513 24.551 C 368.756 24.716,369.628 25.084,370.002 25.602 C 370.318 26.041,370.813 26.400,371.102 26.400 C 371.798 26.400,374.400 29.023,374.400 29.725 C 374.400 30.530,375.787 32.000,376.547 32.000 C 376.933 32.000,377.200 31.673,377.200 31.200 C 377.200 30.760,377.020 30.400,376.800 30.400 C 376.580 30.400,376.400 30.040,376.400 29.600 C 376.400 29.160,376.220 28.800,376.000 28.800 C 375.780 28.800,375.600 28.517,375.600 28.171 C 375.600 27.826,375.375 27.308,375.100 27.020 C 374.825 26.733,374.343 26.126,374.028 25.672 C 373.702 25.200,372.802 24.735,371.928 24.588 C 371.088 24.446,370.400 24.166,370.400 23.965 C 370.400 23.764,369.860 23.600,369.200 23.600 C 368.540 23.600,368.000 23.420,368.000 23.200 C 368.000 22.980,367.280 22.800,366.400 22.800 C 365.520 22.800,364.800 22.620,364.800 22.400 C 364.800 22.171,363.600 22.000,362.000 22.000 C 360.400 22.000,359.200 21.829,359.200 21.600 C 359.200 21.380,358.210 21.200,357.000 21.200 C 355.790 21.200,354.800 21.380,354.800 21.600 M365.600 26.000 C 365.600 26.220,365.920 26.400,366.312 26.400 C 366.703 26.400,367.283 26.760,367.600 27.200 C 367.917 27.640,368.419 28.000,368.714 28.000 C 369.010 28.000,370.149 28.921,371.246 30.047 C 372.342 31.173,373.338 31.996,373.457 31.876 C 373.768 31.565,369.324 27.200,368.697 27.200 C 368.411 27.200,367.917 26.840,367.600 26.400 C 367.004 25.574,365.600 25.293,365.600 26.000 M321.200 32.400 C 321.200 32.620,321.740 32.800,322.400 32.800 C 323.060 32.800,323.600 32.620,323.600 32.400 C 323.600 32.180,323.060 32.000,322.400 32.000 C 321.740 32.000,321.200 32.180,321.200 32.400 M316.400 33.200 C 316.400 33.420,317.120 33.600,318.000 33.600 C 318.880 33.600,319.600 33.420,319.600 33.200 C 319.600 32.980,318.880 32.800,318.000 32.800 C 317.120 32.800,316.400 32.980,316.400 33.200 M392.000 33.029 C 392.000 33.453,393.236 34.497,393.467 34.267 C 393.592 34.141,393.417 33.760,393.076 33.419 C 392.441 32.784,392.000 32.624,392.000 33.029 M313.200 34.000 C 313.200 34.220,312.924 34.400,312.587 34.400 C 311.791 34.400,309.200 36.991,309.200 37.787 C 309.200 38.124,309.020 38.400,308.800 38.400 C 308.580 38.400,308.400 38.940,308.400 39.600 C 308.400 40.260,308.580 40.800,308.800 40.800 C 309.020 40.800,309.200 40.260,309.200 39.600 C 309.200 38.940,309.380 38.400,309.600 38.400 C 309.820 38.400,310.000 38.122,310.000 37.782 C 310.000 36.982,311.782 35.200,312.582 35.200 C 312.922 35.200,313.200 35.020,313.200 34.800 C 313.200 34.580,313.740 34.400,314.400 34.400 C 315.060 34.400,315.600 34.220,315.600 34.000 C 315.600 33.780,315.060 33.600,314.400 33.600 C 313.740 33.600,313.200 33.780,313.200 34.000 M393.600 36.400 C 393.600 36.633,394.933 36.800,396.800 36.800 C 398.667 36.800,400.000 36.633,400.000 36.400 C 400.000 36.167,398.667 36.000,396.800 36.000 C 394.933 36.000,393.600 36.167,393.600 36.400 M308.101 43.000 C 308.105 43.880,308.187 44.193,308.283 43.695 C 308.379 43.198,308.375 42.478,308.275 42.095 C 308.175 41.713,308.096 42.120,308.101 43.000 M286.800 44.800 C 286.800 45.020,287.160 45.200,287.600 45.200 C 288.040 45.200,288.400 45.020,288.400 44.800 C 288.400 44.580,288.040 44.400,287.600 44.400 C 287.160 44.400,286.800 44.580,286.800 44.800 M281.660 46.642 C 280.931 47.466,281.400 47.857,282.181 47.076 C 282.521 46.736,282.800 46.354,282.800 46.229 C 282.800 45.809,282.206 46.024,281.660 46.642 M279.600 47.600 C 279.600 48.040,279.780 48.400,280.000 48.400 C 280.220 48.400,280.400 48.040,280.400 47.600 C 280.400 47.160,280.220 46.800,280.000 46.800 C 279.780 46.800,279.600 47.160,279.600 47.600 M278.000 49.413 C 278.000 50.647,275.582 53.200,274.413 53.200 C 273.966 53.200,273.600 53.380,273.600 53.600 C 273.600 54.469,276.810 54.027,277.818 53.018 C 278.834 52.003,279.288 48.400,278.400 48.400 C 278.180 48.400,278.000 48.856,278.000 49.413 M272.000 55.200 C 272.000 55.420,272.360 55.600,272.800 55.600 C 273.240 55.600,273.600 55.420,273.600 55.200 C 273.600 54.980,273.240 54.800,272.800 54.800 C 272.360 54.800,272.000 54.980,272.000 55.200 M253.127 57.619 C 253.050 57.850,251.501 58.116,249.684 58.210 C 246.001 58.402,244.400 59.363,244.400 61.382 C 244.400 62.133,244.190 62.400,243.600 62.400 C 243.078 62.400,242.800 62.133,242.800 61.633 C 242.800 61.212,242.575 60.775,242.300 60.664 C 241.922 60.510,241.943 60.361,242.388 60.052 C 242.712 59.827,242.837 59.504,242.667 59.333 C 242.215 58.882,241.581 60.079,241.836 60.900 C 241.980 61.362,241.840 61.600,241.427 61.600 C 241.082 61.600,240.800 61.780,240.800 62.000 C 240.800 62.220,240.440 62.400,240.000 62.400 C 239.560 62.400,239.200 62.220,239.200 62.000 C 239.200 61.780,239.020 61.600,238.800 61.600 C 238.580 61.600,238.400 61.960,238.400 62.400 C 238.400 63.081,238.667 63.200,240.200 63.200 C 241.190 63.200,242.000 63.380,242.000 63.600 C 242.000 64.200,237.704 64.104,237.488 63.500 C 237.390 63.225,237.173 63.126,237.007 63.281 C 236.603 63.657,237.780 64.800,238.571 64.800 C 238.917 64.800,239.200 64.980,239.200 65.200 C 239.200 65.420,238.197 65.600,236.971 65.600 C 234.678 65.600,233.600 66.166,233.600 67.371 C 233.600 68.118,235.042 68.225,235.336 67.500 C 235.489 67.122,235.652 67.147,236.000 67.600 C 236.348 68.053,236.511 68.078,236.664 67.700 C 236.775 67.425,237.197 67.200,237.600 67.200 C 238.003 67.200,238.438 66.975,238.567 66.700 C 238.753 66.300,238.847 66.300,239.033 66.700 C 239.310 67.293,240.800 67.377,240.800 66.800 C 240.800 66.580,241.250 66.400,241.800 66.400 C 242.533 66.400,242.800 66.187,242.800 65.600 C 242.800 65.007,243.067 64.800,243.829 64.800 C 244.986 64.800,246.000 63.973,246.000 63.029 C 246.000 62.683,246.320 62.400,246.712 62.400 C 247.103 62.400,247.683 62.040,248.000 61.600 C 248.317 61.160,248.897 60.800,249.288 60.800 C 249.680 60.800,250.000 60.620,250.000 60.400 C 250.000 60.180,250.360 60.000,250.800 60.000 C 251.240 60.000,251.600 59.820,251.600 59.600 C 251.600 59.380,251.945 59.200,252.367 59.200 C 252.788 59.200,253.204 58.987,253.291 58.727 C 253.391 58.426,254.790 58.189,257.124 58.078 C 259.146 57.981,260.800 57.744,260.800 57.551 C 260.800 57.041,253.298 57.107,253.127 57.619 M232.000 75.400 C 232.000 75.950,232.180 76.400,232.400 76.400 C 232.620 76.400,232.800 75.950,232.800 75.400 C 232.800 74.850,232.620 74.400,232.400 74.400 C 232.180 74.400,232.000 74.850,232.000 75.400 M232.000 87.600 C 232.000 88.040,232.180 88.400,232.400 88.400 C 232.620 88.400,232.800 88.040,232.800 87.600 C 232.800 87.160,232.620 86.800,232.400 86.800 C 232.180 86.800,232.000 87.160,232.000 87.600 M246.000 101.829 C 246.000 101.954,246.257 102.314,246.571 102.629 C 247.227 103.284,248.400 103.394,248.400 102.800 C 248.400 102.580,248.040 102.400,247.600 102.400 C 247.160 102.400,246.800 102.220,246.800 102.000 C 246.800 101.780,246.620 101.600,246.400 101.600 C 246.180 101.600,246.000 101.703,246.000 101.829 M249.200 103.600 C 249.200 103.820,249.740 104.000,250.400 104.000 C 251.060 104.000,251.600 103.820,251.600 103.600 C 251.600 103.380,251.060 103.200,250.400 103.200 C 249.740 103.200,249.200 103.380,249.200 103.600 M252.400 104.400 C 252.400 104.620,253.300 104.800,254.400 104.800 C 255.500 104.800,256.400 104.620,256.400 104.400 C 256.400 104.180,255.500 104.000,254.400 104.000 C 253.300 104.000,252.400 104.180,252.400 104.400 M260.800 105.200 C 260.800 105.440,262.400 105.600,264.800 105.600 C 267.200 105.600,268.800 105.440,268.800 105.200 C 268.800 104.960,267.200 104.800,264.800 104.800 C 262.400 104.800,260.800 104.960,260.800 105.200 M274.800 106.000 C 274.800 106.220,275.700 106.400,276.800 106.400 C 277.900 106.400,278.800 106.220,278.800 106.000 C 278.800 105.780,277.900 105.600,276.800 105.600 C 275.700 105.600,274.800 105.780,274.800 106.000 M274.400 294.800 C 274.400 295.020,275.210 295.200,276.200 295.200 C 277.190 295.200,278.000 295.020,278.000 294.800 C 278.000 294.580,277.190 294.400,276.200 294.400 C 275.210 294.400,274.400 294.580,274.400 294.800 M261.600 295.600 C 261.600 295.829,262.800 296.000,264.400 296.000 C 266.000 296.000,267.200 295.829,267.200 295.600 C 267.200 295.371,266.000 295.200,264.400 295.200 C 262.800 295.200,261.600 295.371,261.600 295.600 M254.800 296.400 C 254.800 296.620,255.520 296.800,256.400 296.800 C 257.280 296.800,258.000 296.620,258.000 296.400 C 258.000 296.180,257.280 296.000,256.400 296.000 C 255.520 296.000,254.800 296.180,254.800 296.400 M250.000 297.200 C 250.000 297.420,249.460 297.600,248.800 297.600 C 248.140 297.600,247.600 297.780,247.600 298.000 C 247.600 298.220,247.280 298.400,246.888 298.400 C 246.497 298.400,245.917 298.760,245.600 299.200 C 245.283 299.640,244.743 300.000,244.400 300.000 C 244.057 300.000,243.517 300.360,243.200 300.800 C 242.883 301.240,242.477 301.600,242.298 301.600 C 241.765 301.600,239.200 304.331,239.200 304.898 C 239.200 305.187,238.840 305.683,238.400 306.000 C 237.296 306.795,237.399 307.202,238.700 307.188 C 239.429 307.180,240.137 306.767,240.800 305.963 C 243.088 303.188,247.205 299.200,247.781 299.200 C 248.121 299.200,248.400 299.020,248.400 298.800 C 248.400 298.580,248.760 298.400,249.200 298.400 C 249.640 298.400,250.000 298.220,250.000 298.000 C 250.000 297.780,250.720 297.600,251.600 297.600 C 252.480 297.600,253.200 297.420,253.200 297.200 C 253.200 296.980,252.480 296.800,251.600 296.800 C 250.720 296.800,250.000 296.980,250.000 297.200 M232.460 333.442 C 232.162 333.778,232.052 334.176,232.214 334.326 C 232.377 334.477,232.590 334.375,232.688 334.100 C 232.989 333.257,234.400 333.504,234.400 334.400 C 234.400 334.840,234.503 335.200,234.629 335.200 C 235.098 335.200,236.000 334.035,236.000 333.429 C 236.000 332.678,235.363 332.594,235.033 333.300 C 234.847 333.700,234.753 333.700,234.567 333.300 C 234.249 332.620,233.119 332.696,232.460 333.442 M235.454 335.305 C 234.948 335.912,234.648 336.039,234.521 335.700 C 234.339 335.214,232.800 334.971,232.800 335.429 C 232.800 336.170,234.166 336.800,235.771 336.800 C 236.777 336.800,237.600 336.980,237.600 337.200 C 237.600 337.420,237.420 337.600,237.200 337.600 C 236.980 337.600,236.800 337.780,236.800 338.000 C 236.800 338.220,237.340 338.400,238.000 338.400 C 238.660 338.400,239.200 338.580,239.200 338.800 C 239.200 339.020,239.745 339.200,240.410 339.200 C 241.434 339.200,241.657 339.384,241.860 340.400 C 242.081 341.507,242.800 342.118,242.800 341.200 C 242.800 340.594,243.978 340.721,244.657 341.400 C 244.987 341.730,245.964 342.000,246.829 342.000 C 247.693 342.000,248.400 342.180,248.400 342.400 C 248.400 342.620,249.120 342.800,250.000 342.800 C 250.880 342.800,251.600 342.980,251.600 343.200 C 251.600 343.420,251.780 343.600,252.000 343.600 C 253.469 343.600,252.219 342.084,250.563 341.857 C 249.236 341.675,248.414 341.271,247.602 340.403 C 246.985 339.741,246.191 339.200,245.840 339.200 C 245.488 339.200,245.200 338.917,245.200 338.571 C 245.200 337.490,244.121 336.800,242.429 336.800 C 241.067 336.800,240.800 336.669,240.800 336.000 C 240.800 335.467,240.533 335.200,240.000 335.200 C 239.560 335.200,239.200 335.020,239.200 334.800 C 239.200 333.976,236.228 334.377,235.454 335.305 M233.600 338.800 C 233.600 339.020,233.960 339.200,234.400 339.200 C 234.840 339.200,235.200 339.020,235.200 338.800 C 235.200 338.580,234.840 338.400,234.400 338.400 C 233.960 338.400,233.600 338.580,233.600 338.800 M253.200 343.200 C 253.200 343.420,253.740 343.600,254.400 343.600 C 255.060 343.600,255.600 343.420,255.600 343.200 C 255.600 342.980,255.060 342.800,254.400 342.800 C 253.740 342.800,253.200 342.980,253.200 343.200 M272.000 345.200 C 272.000 345.640,272.180 346.000,272.400 346.000 C 272.620 346.000,272.800 345.640,272.800 345.200 C 272.800 344.760,272.620 344.400,272.400 344.400 C 272.180 344.400,272.000 344.760,272.000 345.200 M271.200 347.200 C 271.200 347.420,271.740 347.600,272.400 347.600 C 273.060 347.600,273.600 347.780,273.600 348.000 C 273.600 348.220,273.240 348.400,272.800 348.400 C 272.360 348.400,272.000 348.580,272.000 348.800 C 272.000 349.020,272.320 349.200,272.712 349.200 C 273.103 349.200,273.688 349.585,274.012 350.055 C 274.335 350.526,275.005 351.327,275.500 351.837 C 275.995 352.347,276.400 353.042,276.400 353.382 C 276.400 353.722,276.580 354.000,276.800 354.000 C 277.020 354.000,277.200 353.640,277.200 353.200 C 277.200 352.760,277.380 352.400,277.600 352.400 C 277.820 352.400,278.000 352.940,278.000 353.600 C 278.000 354.260,278.180 354.800,278.400 354.800 C 278.620 354.800,278.800 354.080,278.800 353.200 C 278.800 352.320,278.620 351.600,278.400 351.600 C 278.180 351.600,278.000 351.324,278.000 350.987 C 278.000 350.301,275.458 347.600,274.813 347.600 C 274.586 347.600,274.400 347.420,274.400 347.200 C 274.400 346.980,273.680 346.800,272.800 346.800 C 271.920 346.800,271.200 346.980,271.200 347.200 M279.600 353.600 C 279.600 353.820,279.960 354.000,280.400 354.000 C 280.840 354.000,281.200 353.820,281.200 353.600 C 281.200 353.380,280.840 353.200,280.400 353.200 C 279.960 353.200,279.600 353.380,279.600 353.600 M285.200 356.000 C 285.200 356.220,285.560 356.400,286.000 356.400 C 286.440 356.400,286.800 356.220,286.800 356.000 C 286.800 355.780,286.440 355.600,286.000 355.600 C 285.560 355.600,285.200 355.780,285.200 356.000 M309.200 364.218 C 309.200 364.632,311.249 366.484,311.467 366.267 C 311.587 366.147,311.224 365.588,310.661 365.024 C 309.665 364.028,309.200 363.772,309.200 364.218 M393.600 364.400 C 393.600 364.633,394.933 364.800,396.800 364.800 C 398.667 364.800,400.000 364.633,400.000 364.400 C 400.000 364.167,398.667 364.000,396.800 364.000 C 394.933 364.000,393.600 364.167,393.600 364.400 M392.460 367.042 C 391.731 367.866,392.200 368.257,392.981 367.476 C 393.321 367.136,393.600 366.754,393.600 366.629 C 393.600 366.209,393.006 366.424,392.460 367.042 M314.800 367.600 C 314.800 367.820,315.160 368.000,315.600 368.000 C 316.040 368.000,316.400 367.820,316.400 367.600 C 316.400 367.380,316.040 367.200,315.600 367.200 C 315.160 367.200,314.800 367.380,314.800 367.600 M320.400 368.400 C 320.400 368.620,320.760 368.800,321.200 368.800 C 321.640 368.800,322.000 368.620,322.000 368.400 C 322.000 368.180,321.640 368.000,321.200 368.000 C 320.760 368.000,320.400 368.180,320.400 368.400 M370.900 371.825 C 369.305 373.455,368.000 374.971,368.000 375.194 C 368.000 375.417,367.680 375.600,367.288 375.600 C 366.897 375.600,366.317 375.960,366.000 376.400 C 365.683 376.840,365.103 377.200,364.712 377.200 C 364.320 377.200,364.000 377.380,364.000 377.600 C 364.000 377.820,363.460 378.000,362.800 378.000 C 362.140 378.000,361.600 378.180,361.600 378.400 C 361.600 378.620,362.140 378.800,362.800 378.800 C 363.460 378.800,364.000 378.620,364.000 378.400 C 364.000 378.180,364.500 378.000,365.112 378.000 C 365.765 378.000,366.461 377.670,366.800 377.200 C 367.117 376.760,367.615 376.400,367.906 376.400 C 368.198 376.400,368.886 375.950,369.436 375.400 C 369.986 374.850,370.704 374.400,371.032 374.400 C 371.899 374.400,374.231 371.929,374.545 370.676 C 374.694 370.084,374.992 369.600,375.208 369.600 C 375.423 369.600,375.600 369.420,375.600 369.200 C 375.600 367.973,373.548 369.119,370.900 371.825 M346.000 375.013 C 346.000 375.509,348.825 378.000,349.387 378.000 C 349.724 378.000,350.000 378.180,350.000 378.400 C 350.000 378.620,350.540 378.800,351.200 378.800 C 351.860 378.800,352.400 378.620,352.400 378.400 C 352.400 378.180,351.860 378.000,351.200 378.000 C 350.540 378.000,350.000 377.820,350.000 377.600 C 350.000 377.380,349.712 377.200,349.360 377.200 C 349.009 377.200,348.217 376.660,347.600 376.000 C 346.541 374.866,346.000 374.533,346.000 375.013 M353.200 379.200 C 353.200 379.420,353.920 379.600,354.800 379.600 C 355.680 379.600,356.400 379.420,356.400 379.200 C 356.400 378.980,355.680 378.800,354.800 378.800 C 353.920 378.800,353.200 378.980,353.200 379.200 M357.200 379.200 C 357.200 379.420,358.010 379.600,359.000 379.600 C 359.990 379.600,360.800 379.420,360.800 379.200 C 360.800 378.980,359.990 378.800,359.000 378.800 C 358.010 378.800,357.200 378.980,357.200 379.200 M268.800 380.631 C 268.800 381.317,268.247 382.194,267.150 383.248 C 266.243 384.120,265.607 384.941,265.738 385.072 C 265.869 385.203,266.504 384.745,267.149 384.055 C 267.793 383.365,268.429 382.800,268.560 382.800 C 269.140 382.800,268.723 384.173,267.936 384.856 C 267.461 385.268,267.178 385.711,267.307 385.840 C 267.436 385.970,268.553 385.064,269.790 383.828 C 271.771 381.847,271.967 381.510,271.447 380.990 C 270.690 380.233,270.400 380.244,270.400 381.029 C 270.400 381.820,269.257 382.997,268.881 382.593 C 268.726 382.427,268.825 382.210,269.100 382.112 C 269.691 381.901,269.783 379.600,269.200 379.600 C 268.980 379.600,268.800 380.064,268.800 380.631 M274.400 379.953 C 274.400 380.168,274.670 380.613,275.000 380.943 C 275.679 381.622,275.806 382.800,275.200 382.800 C 274.980 382.800,274.800 383.145,274.800 383.567 C 274.800 384.504,271.907 387.600,271.031 387.600 C 270.684 387.600,270.400 387.780,270.400 388.000 C 270.400 388.220,270.117 388.400,269.771 388.400 C 268.980 388.400,267.803 389.543,268.207 389.919 C 268.373 390.074,268.590 389.975,268.688 389.700 C 268.786 389.425,269.212 389.200,269.633 389.200 C 270.055 389.200,270.400 389.020,270.400 388.800 C 270.400 388.580,270.684 388.400,271.031 388.400 C 271.379 388.400,272.324 387.686,273.131 386.813 C 275.383 384.379,275.600 384.080,275.600 383.417 C 275.600 383.078,275.780 382.800,276.000 382.800 C 276.738 382.800,276.409 381.573,275.400 380.564 C 274.850 380.014,274.400 379.739,274.400 379.953 M272.800 380.767 C 272.800 380.968,273.021 381.207,273.290 381.297 C 273.565 381.388,272.492 382.731,270.847 384.354 C 269.234 385.945,268.022 387.355,268.154 387.488 C 268.287 387.620,268.732 387.339,269.144 386.864 C 269.557 386.389,270.104 386.000,270.360 386.000 C 271.028 386.000,273.600 383.338,273.600 382.647 C 273.600 382.328,273.823 381.992,274.096 381.901 C 274.457 381.781,274.411 381.554,273.925 381.068 C 273.178 380.321,272.800 380.220,272.800 380.767 M278.000 383.600 C 278.000 384.040,278.180 384.400,278.400 384.400 C 278.620 384.400,278.800 384.040,278.800 383.600 C 278.800 383.160,278.620 382.800,278.400 382.800 C 278.180 382.800,278.000 383.160,278.000 383.600 M251.600 384.000 C 251.600 384.220,251.960 384.400,252.400 384.400 C 252.840 384.400,253.200 384.220,253.200 384.000 C 253.200 383.780,252.840 383.600,252.400 383.600 C 251.960 383.600,251.600 383.780,251.600 384.000 M254.800 384.800 C 254.800 385.020,255.340 385.200,256.000 385.200 C 256.660 385.200,257.200 385.020,257.200 384.800 C 257.200 384.580,256.660 384.400,256.000 384.400 C 255.340 384.400,254.800 384.580,254.800 384.800 M275.500 388.066 C 273.913 389.847,274.145 390.281,275.800 388.627 C 276.570 387.857,277.200 387.131,277.200 387.013 C 277.200 386.500,276.519 386.922,275.500 388.066 M270.400 391.200 C 270.400 391.420,270.760 391.600,271.200 391.600 C 271.640 391.600,272.000 391.420,272.000 391.200 C 272.000 390.980,271.640 390.800,271.200 390.800 C 270.760 390.800,270.400 390.980,270.400 391.200 " stroke="none" fill="#2c90f0" fill-rule="evenodd"></path><path id="path4" d="M354.800 21.600 C 354.800 21.820,354.080 22.000,353.200 22.000 C 352.320 22.000,351.600 22.180,351.600 22.400 C 351.600 22.620,351.240 22.800,350.800 22.800 C 350.360 22.800,350.000 22.980,350.000 23.200 C 350.000 23.420,349.722 23.600,349.383 23.600 C 349.044 23.600,348.549 23.779,348.283 23.999 C 345.915 25.953,345.200 26.825,345.200 27.760 C 345.200 28.332,345.020 28.800,344.800 28.800 C 344.580 28.800,344.400 29.340,344.400 30.000 C 344.400 30.660,344.220 31.200,344.000 31.200 C 343.780 31.200,343.600 31.380,343.600 31.600 C 343.600 32.194,344.773 32.084,345.429 31.429 C 345.743 31.114,346.000 30.394,346.000 29.829 C 346.000 29.263,346.180 28.800,346.400 28.800 C 346.620 28.800,346.800 28.480,346.800 28.088 C 346.800 27.697,347.160 27.117,347.600 26.800 C 348.040 26.483,348.400 25.903,348.400 25.512 C 348.400 25.075,348.699 24.800,349.171 24.800 C 349.596 24.800,350.213 24.530,350.543 24.200 C 350.873 23.870,351.426 23.600,351.771 23.600 C 352.117 23.600,352.400 23.420,352.400 23.200 C 352.400 22.980,352.940 22.800,353.600 22.800 C 354.260 22.800,354.800 22.620,354.800 22.400 C 354.800 22.180,355.790 22.000,357.000 22.000 C 358.210 22.000,359.200 22.180,359.200 22.400 C 359.200 22.620,360.100 22.800,361.200 22.800 C 362.300 22.800,363.200 22.980,363.200 23.200 C 363.200 23.420,363.740 23.600,364.400 23.600 C 365.060 23.600,365.600 23.757,365.600 23.948 C 365.600 24.140,366.461 24.411,367.513 24.551 C 368.756 24.716,369.628 25.084,370.002 25.602 C 370.318 26.041,370.813 26.400,371.102 26.400 C 371.798 26.400,374.400 29.023,374.400 29.725 C 374.400 30.530,375.787 32.000,376.547 32.000 C 376.933 32.000,377.200 31.673,377.200 31.200 C 377.200 30.760,377.020 30.400,376.800 30.400 C 376.580 30.400,376.400 30.040,376.400 29.600 C 376.400 29.160,376.220 28.800,376.000 28.800 C 375.780 28.800,375.600 28.517,375.600 28.171 C 375.600 27.826,375.375 27.308,375.100 27.020 C 374.825 26.733,374.343 26.126,374.028 25.672 C 373.702 25.200,372.802 24.735,371.928 24.588 C 371.088 24.446,370.400 24.166,370.400 23.965 C 370.400 23.764,369.860 23.600,369.200 23.600 C 368.540 23.600,368.000 23.420,368.000 23.200 C 368.000 22.980,367.280 22.800,366.400 22.800 C 365.520 22.800,364.800 22.620,364.800 22.400 C 364.800 22.171,363.600 22.000,362.000 22.000 C 360.400 22.000,359.200 21.829,359.200 21.600 C 359.200 21.380,358.210 21.200,357.000 21.200 C 355.790 21.200,354.800 21.380,354.800 21.600 M365.600 26.000 C 365.600 26.220,365.920 26.400,366.312 26.400 C 366.703 26.400,367.283 26.760,367.600 27.200 C 367.917 27.640,368.419 28.000,368.714 28.000 C 369.010 28.000,370.149 28.921,371.246 30.047 C 372.342 31.173,373.338 31.996,373.457 31.876 C 373.768 31.565,369.324 27.200,368.697 27.200 C 368.411 27.200,367.917 26.840,367.600 26.400 C 367.004 25.574,365.600 25.293,365.600 26.000 M321.200 32.400 C 321.200 32.620,321.740 32.800,322.400 32.800 C 323.060 32.800,323.600 32.620,323.600 32.400 C 323.600 32.180,323.060 32.000,322.400 32.000 C 321.740 32.000,321.200 32.180,321.200 32.400 M316.400 33.200 C 316.400 33.420,317.120 33.600,318.000 33.600 C 318.880 33.600,319.600 33.420,319.600 33.200 C 319.600 32.980,318.880 32.800,318.000 32.800 C 317.120 32.800,316.400 32.980,316.400 33.200 M392.000 33.029 C 392.000 33.453,393.236 34.497,393.467 34.267 C 393.592 34.141,393.417 33.760,393.076 33.419 C 392.441 32.784,392.000 32.624,392.000 33.029 M313.200 34.000 C 313.200 34.220,312.924 34.400,312.587 34.400 C 311.791 34.400,309.200 36.991,309.200 37.787 C 309.200 38.124,309.020 38.400,308.800 38.400 C 308.580 38.400,308.400 38.940,308.400 39.600 C 308.400 40.260,308.580 40.800,308.800 40.800 C 309.020 40.800,309.200 40.260,309.200 39.600 C 309.200 38.940,309.380 38.400,309.600 38.400 C 309.820 38.400,310.000 38.122,310.000 37.782 C 310.000 36.982,311.782 35.200,312.582 35.200 C 312.922 35.200,313.200 35.020,313.200 34.800 C 313.200 34.580,313.740 34.400,314.400 34.400 C 315.060 34.400,315.600 34.220,315.600 34.000 C 315.600 33.780,315.060 33.600,314.400 33.600 C 313.740 33.600,313.200 33.780,313.200 34.000 M393.600 36.400 C 393.600 36.633,394.933 36.800,396.800 36.800 C 398.667 36.800,400.000 36.633,400.000 36.400 C 400.000 36.167,398.667 36.000,396.800 36.000 C 394.933 36.000,393.600 36.167,393.600 36.400 M308.101 43.000 C 308.105 43.880,308.187 44.193,308.283 43.695 C 308.379 43.198,308.375 42.478,308.275 42.095 C 308.175 41.713,308.096 42.120,308.101 43.000 M286.800 44.800 C 286.800 45.020,287.160 45.200,287.600 45.200 C 288.040 45.200,288.400 45.020,288.400 44.800 C 288.400 44.580,288.040 44.400,287.600 44.400 C 287.160 44.400,286.800 44.580,286.800 44.800 M281.660 46.642 C 280.931 47.466,281.400 47.857,282.181 47.076 C 282.521 46.736,282.800 46.354,282.800 46.229 C 282.800 45.809,282.206 46.024,281.660 46.642 M279.600 47.600 C 279.600 48.040,279.780 48.400,280.000 48.400 C 280.220 48.400,280.400 48.040,280.400 47.600 C 280.400 47.160,280.220 46.800,280.000 46.800 C 279.780 46.800,279.600 47.160,279.600 47.600 M278.000 49.413 C 278.000 50.647,275.582 53.200,274.413 53.200 C 273.966 53.200,273.600 53.380,273.600 53.600 C 273.600 54.469,276.810 54.027,277.818 53.018 C 278.834 52.003,279.288 48.400,278.400 48.400 C 278.180 48.400,278.000 48.856,278.000 49.413 M272.000 55.200 C 272.000 55.420,272.360 55.600,272.800 55.600 C 273.240 55.600,273.600 55.420,273.600 55.200 C 273.600 54.980,273.240 54.800,272.800 54.800 C 272.360 54.800,272.000 54.980,272.000 55.200 M253.127 57.619 C 253.050 57.850,251.501 58.116,249.684 58.210 C 246.001 58.402,244.400 59.363,244.400 61.382 C 244.400 62.133,244.190 62.400,243.600 62.400 C 243.078 62.400,242.800 62.133,242.800 61.633 C 242.800 61.212,242.575 60.775,242.300 60.664 C 241.922 60.510,241.943 60.361,242.388 60.052 C 242.712 59.827,242.837 59.504,242.667 59.333 C 242.215 58.882,241.581 60.079,241.836 60.900 C 241.980 61.362,241.840 61.600,241.427 61.600 C 241.082 61.600,240.800 61.780,240.800 62.000 C 240.800 62.220,240.440 62.400,240.000 62.400 C 239.560 62.400,239.200 62.220,239.200 62.000 C 239.200 61.780,239.020 61.600,238.800 61.600 C 238.580 61.600,238.400 61.960,238.400 62.400 C 238.400 63.081,238.667 63.200,240.200 63.200 C 241.190 63.200,242.000 63.380,242.000 63.600 C 242.000 64.200,237.704 64.104,237.488 63.500 C 237.390 63.225,237.173 63.126,237.007 63.281 C 236.603 63.657,237.780 64.800,238.571 64.800 C 238.917 64.800,239.200 64.980,239.200 65.200 C 239.200 65.420,238.197 65.600,236.971 65.600 C 234.678 65.600,233.600 66.166,233.600 67.371 C 233.600 68.118,235.042 68.225,235.336 67.500 C 235.489 67.122,235.652 67.147,236.000 67.600 C 236.348 68.053,236.511 68.078,236.664 67.700 C 236.775 67.425,237.197 67.200,237.600 67.200 C 238.003 67.200,238.438 66.975,238.567 66.700 C 238.753 66.300,238.847 66.300,239.033 66.700 C 239.310 67.293,240.800 67.377,240.800 66.800 C 240.800 66.580,241.250 66.400,241.800 66.400 C 242.533 66.400,242.800 66.187,242.800 65.600 C 242.800 65.007,243.067 64.800,243.829 64.800 C 244.986 64.800,246.000 63.973,246.000 63.029 C 246.000 62.683,246.320 62.400,246.712 62.400 C 247.103 62.400,247.683 62.040,248.000 61.600 C 248.317 61.160,248.897 60.800,249.288 60.800 C 249.680 60.800,250.000 60.620,250.000 60.400 C 250.000 60.180,250.360 60.000,250.800 60.000 C 251.240 60.000,251.600 59.820,251.600 59.600 C 251.600 59.380,251.945 59.200,252.367 59.200 C 252.788 59.200,253.204 58.987,253.291 58.727 C 253.391 58.426,254.790 58.189,257.124 58.078 C 259.146 57.981,260.800 57.744,260.800 57.551 C 260.800 57.041,253.298 57.107,253.127 57.619 M232.000 75.400 C 232.000 75.950,232.180 76.400,232.400 76.400 C 232.620 76.400,232.800 75.950,232.800 75.400 C 232.800 74.850,232.620 74.400,232.400 74.400 C 232.180 74.400,232.000 74.850,232.000 75.400 M232.000 87.600 C 232.000 88.040,232.180 88.400,232.400 88.400 C 232.620 88.400,232.800 88.040,232.800 87.600 C 232.800 87.160,232.620 86.800,232.400 86.800 C 232.180 86.800,232.000 87.160,232.000 87.600 M246.000 101.829 C 246.000 101.954,246.257 102.314,246.571 102.629 C 247.227 103.284,248.400 103.394,248.400 102.800 C 248.400 102.580,248.040 102.400,247.600 102.400 C 247.160 102.400,246.800 102.220,246.800 102.000 C 246.800 101.780,246.620 101.600,246.400 101.600 C 246.180 101.600,246.000 101.703,246.000 101.829 M249.200 103.600 C 249.200 103.820,249.740 104.000,250.400 104.000 C 251.060 104.000,251.600 103.820,251.600 103.600 C 251.600 103.380,251.060 103.200,250.400 103.200 C 249.740 103.200,249.200 103.380,249.200 103.600 M252.400 104.400 C 252.400 104.620,253.300 104.800,254.400 104.800 C 255.500 104.800,256.400 104.620,256.400 104.400 C 256.400 104.180,255.500 104.000,254.400 104.000 C 253.300 104.000,252.400 104.180,252.400 104.400 M260.800 105.200 C 260.800 105.440,262.400 105.600,264.800 105.600 C 267.200 105.600,268.800 105.440,268.800 105.200 C 268.800 104.960,267.200 104.800,264.800 104.800 C 262.400 104.800,260.800 104.960,260.800 105.200 M274.800 106.000 C 274.800 106.220,275.700 106.400,276.800 106.400 C 277.900 106.400,278.800 106.220,278.800 106.000 C 278.800 105.780,277.900 105.600,276.800 105.600 C 275.700 105.600,274.800 105.780,274.800 106.000 M274.400 294.800 C 274.400 295.020,275.210 295.200,276.200 295.200 C 277.190 295.200,278.000 295.020,278.000 294.800 C 278.000 294.580,277.190 294.400,276.200 294.400 C 275.210 294.400,274.400 294.580,274.400 294.800 M261.600 295.600 C 261.600 295.829,262.800 296.000,264.400 296.000 C 266.000 296.000,267.200 295.829,267.200 295.600 C 267.200 295.371,266.000 295.200,264.400 295.200 C 262.800 295.200,261.600 295.371,261.600 295.600 M254.800 296.400 C 254.800 296.620,255.520 296.800,256.400 296.800 C 257.280 296.800,258.000 296.620,258.000 296.400 C 258.000 296.180,257.280 296.000,256.400 296.000 C 255.520 296.000,254.800 296.180,254.800 296.400 M250.000 297.200 C 250.000 297.420,249.460 297.600,248.800 297.600 C 248.140 297.600,247.600 297.780,247.600 298.000 C 247.600 298.220,247.280 298.400,246.888 298.400 C 246.497 298.400,245.917 298.760,245.600 299.200 C 245.283 299.640,244.743 300.000,244.400 300.000 C 244.057 300.000,243.517 300.360,243.200 300.800 C 242.883 301.240,242.477 301.600,242.298 301.600 C 241.765 301.600,239.200 304.331,239.200 304.898 C 239.200 305.187,238.840 305.683,238.400 306.000 C 237.296 306.795,237.399 307.202,238.700 307.188 C 239.429 307.180,240.137 306.767,240.800 305.963 C 243.088 303.188,247.205 299.200,247.781 299.200 C 248.121 299.200,248.400 299.020,248.400 298.800 C 248.400 298.580,248.760 298.400,249.200 298.400 C 249.640 298.400,250.000 298.220,250.000 298.000 C 250.000 297.780,250.720 297.600,251.600 297.600 C 252.480 297.600,253.200 297.420,253.200 297.200 C 253.200 296.980,252.480 296.800,251.600 296.800 C 250.720 296.800,250.000 296.980,250.000 297.200 M232.460 333.442 C 232.162 333.778,232.052 334.176,232.214 334.326 C 232.377 334.477,232.590 334.375,232.688 334.100 C 232.989 333.257,234.400 333.504,234.400 334.400 C 234.400 334.840,234.503 335.200,234.629 335.200 C 235.098 335.200,236.000 334.035,236.000 333.429 C 236.000 332.678,235.363 332.594,235.033 333.300 C 234.847 333.700,234.753 333.700,234.567 333.300 C 234.249 332.620,233.119 332.696,232.460 333.442 M235.454 335.305 C 234.948 335.912,234.648 336.039,234.521 335.700 C 234.339 335.214,232.800 334.971,232.800 335.429 C 232.800 336.170,234.166 336.800,235.771 336.800 C 236.777 336.800,237.600 336.980,237.600 337.200 C 237.600 337.420,237.420 337.600,237.200 337.600 C 236.980 337.600,236.800 337.780,236.800 338.000 C 236.800 338.220,237.340 338.400,238.000 338.400 C 238.660 338.400,239.200 338.580,239.200 338.800 C 239.200 339.020,239.745 339.200,240.410 339.200 C 241.434 339.200,241.657 339.384,241.860 340.400 C 242.081 341.507,242.800 342.118,242.800 341.200 C 242.800 340.594,243.978 340.721,244.657 341.400 C 244.987 341.730,245.964 342.000,246.829 342.000 C 247.693 342.000,248.400 342.180,248.400 342.400 C 248.400 342.620,249.120 342.800,250.000 342.800 C 250.880 342.800,251.600 342.980,251.600 343.200 C 251.600 343.420,251.780 343.600,252.000 343.600 C 253.469 343.600,252.219 342.084,250.563 341.857 C 249.236 341.675,248.414 341.271,247.602 340.403 C 246.985 339.741,246.191 339.200,245.840 339.200 C 245.488 339.200,245.200 338.917,245.200 338.571 C 245.200 337.490,244.121 336.800,242.429 336.800 C 241.067 336.800,240.800 336.669,240.800 336.000 C 240.800 335.467,240.533 335.200,240.000 335.200 C 239.560 335.200,239.200 335.020,239.200 334.800 C 239.200 333.976,236.228 334.377,235.454 335.305 M233.600 338.800 C 233.600 339.020,233.960 339.200,234.400 339.200 C 234.840 339.200,235.200 339.020,235.200 338.800 C 235.200 338.580,234.840 338.400,234.400 338.400 C 233.960 338.400,233.600 338.580,233.600 338.800 M253.200 343.200 C 253.200 343.420,253.740 343.600,254.400 343.600 C 255.060 343.600,255.600 343.420,255.600 343.200 C 255.600 342.980,255.060 342.800,254.400 342.800 C 253.740 342.800,253.200 342.980,253.200 343.200 M272.000 345.200 C 272.000 345.640,272.180 346.000,272.400 346.000 C 272.620 346.000,272.800 345.640,272.800 345.200 C 272.800 344.760,272.620 344.400,272.400 344.400 C 272.180 344.400,272.000 344.760,272.000 345.200 M271.200 347.200 C 271.200 347.420,271.740 347.600,272.400 347.600 C 273.060 347.600,273.600 347.780,273.600 348.000 C 273.600 348.220,273.240 348.400,272.800 348.400 C 272.360 348.400,272.000 348.580,272.000 348.800 C 272.000 349.020,272.320 349.200,272.712 349.200 C 273.103 349.200,273.688 349.585,274.012 350.055 C 274.335 350.526,275.005 351.327,275.500 351.837 C 275.995 352.347,276.400 353.042,276.400 353.382 C 276.400 353.722,276.580 354.000,276.800 354.000 C 277.020 354.000,277.200 353.640,277.200 353.200 C 277.200 352.760,277.380 352.400,277.600 352.400 C 277.820 352.400,278.000 352.940,278.000 353.600 C 278.000 354.260,278.180 354.800,278.400 354.800 C 278.620 354.800,278.800 354.080,278.800 353.200 C 278.800 352.320,278.620 351.600,278.400 351.600 C 278.180 351.600,278.000 351.324,278.000 350.987 C 278.000 350.301,275.458 347.600,274.813 347.600 C 274.586 347.600,274.400 347.420,274.400 347.200 C 274.400 346.980,273.680 346.800,272.800 346.800 C 271.920 346.800,271.200 346.980,271.200 347.200 M279.600 353.600 C 279.600 353.820,279.960 354.000,280.400 354.000 C 280.840 354.000,281.200 353.820,281.200 353.600 C 281.200 353.380,280.840 353.200,280.400 353.200 C 279.960 353.200,279.600 353.380,279.600 353.600 M285.200 356.000 C 285.200 356.220,285.560 356.400,286.000 356.400 C 286.440 356.400,286.800 356.220,286.800 356.000 C 286.800 355.780,286.440 355.600,286.000 355.600 C 285.560 355.600,285.200 355.780,285.200 356.000 M309.200 364.218 C 309.200 364.632,311.249 366.484,311.467 366.267 C 311.587 366.147,311.224 365.588,310.661 365.024 C 309.665 364.028,309.200 363.772,309.200 364.218 M393.600 364.400 C 393.600 364.633,394.933 364.800,396.800 364.800 C 398.667 364.800,400.000 364.633,400.000 364.400 C 400.000 364.167,398.667 364.000,396.800 364.000 C 394.933 364.000,393.600 364.167,393.600 364.400 M392.460 367.042 C 391.731 367.866,392.200 368.257,392.981 367.476 C 393.321 367.136,393.600 366.754,393.600 366.629 C 393.600 366.209,393.006 366.424,392.460 367.042 M314.800 367.600 C 314.800 367.820,315.160 368.000,315.600 368.000 C 316.040 368.000,316.400 367.820,316.400 367.600 C 316.400 367.380,316.040 367.200,315.600 367.200 C 315.160 367.200,314.800 367.380,314.800 367.600 M320.400 368.400 C 320.400 368.620,320.760 368.800,321.200 368.800 C 321.640 368.800,322.000 368.620,322.000 368.400 C 322.000 368.180,321.640 368.000,321.200 368.000 C 320.760 368.000,320.400 368.180,320.400 368.400 M370.900 371.825 C 369.305 373.455,368.000 374.971,368.000 375.194 C 368.000 375.417,367.680 375.600,367.288 375.600 C 366.897 375.600,366.317 375.960,366.000 376.400 C 365.683 376.840,365.103 377.200,364.712 377.200 C 364.320 377.200,364.000 377.380,364.000 377.600 C 364.000 377.820,363.460 378.000,362.800 378.000 C 362.140 378.000,361.600 378.180,361.600 378.400 C 361.600 378.620,362.140 378.800,362.800 378.800 C 363.460 378.800,364.000 378.620,364.000 378.400 C 364.000 378.180,364.500 378.000,365.112 378.000 C 365.765 378.000,366.461 377.670,366.800 377.200 C 367.117 376.760,367.615 376.400,367.906 376.400 C 368.198 376.400,368.886 375.950,369.436 375.400 C 369.986 374.850,370.704 374.400,371.032 374.400 C 371.899 374.400,374.231 371.929,374.545 370.676 C 374.694 370.084,374.992 369.600,375.208 369.600 C 375.423 369.600,375.600 369.420,375.600 369.200 C 375.600 367.973,373.548 369.119,370.900 371.825 M346.000 375.013 C 346.000 375.509,348.825 378.000,349.387 378.000 C 349.724 378.000,350.000 378.180,350.000 378.400 C 350.000 378.620,350.540 378.800,351.200 378.800 C 351.860 378.800,352.400 378.620,352.400 378.400 C 352.400 378.180,351.860 378.000,351.200 378.000 C 350.540 378.000,350.000 377.820,350.000 377.600 C 350.000 377.380,349.712 377.200,349.360 377.200 C 349.009 377.200,348.217 376.660,347.600 376.000 C 346.541 374.866,346.000 374.533,346.000 375.013 M353.200 379.200 C 353.200 379.420,353.920 379.600,354.800 379.600 C 355.680 379.600,356.400 379.420,356.400 379.200 C 356.400 378.980,355.680 378.800,354.800 378.800 C 353.920 378.800,353.200 378.980,353.200 379.200 M357.200 379.200 C 357.200 379.420,358.010 379.600,359.000 379.600 C 359.990 379.600,360.800 379.420,360.800 379.200 C 360.800 378.980,359.990 378.800,359.000 378.800 C 358.010 378.800,357.200 378.980,357.200 379.200 M268.800 380.631 C 268.800 381.317,268.247 382.194,267.150 383.248 C 266.243 384.120,265.607 384.941,265.738 385.072 C 265.869 385.203,266.504 384.745,267.149 384.055 C 267.793 383.365,268.429 382.800,268.560 382.800 C 269.140 382.800,268.723 384.173,267.936 384.856 C 267.461 385.268,267.178 385.711,267.307 385.840 C 267.436 385.970,268.553 385.064,269.790 383.828 C 271.771 381.847,271.967 381.510,271.447 380.990 C 270.690 380.233,270.400 380.244,270.400 381.029 C 270.400 381.820,269.257 382.997,268.881 382.593 C 268.726 382.427,268.825 382.210,269.100 382.112 C 269.691 381.901,269.783 379.600,269.200 379.600 C 268.980 379.600,268.800 380.064,268.800 380.631 M274.400 379.953 C 274.400 380.168,274.670 380.613,275.000 380.943 C 275.679 381.622,275.806 382.800,275.200 382.800 C 274.980 382.800,274.800 383.145,274.800 383.567 C 274.800 384.504,271.907 387.600,271.031 387.600 C 270.684 387.600,270.400 387.780,270.400 388.000 C 270.400 388.220,270.117 388.400,269.771 388.400 C 268.980 388.400,267.803 389.543,268.207 389.919 C 268.373 390.074,268.590 389.975,268.688 389.700 C 268.786 389.425,269.212 389.200,269.633 389.200 C 270.055 389.200,270.400 389.020,270.400 388.800 C 270.400 388.580,270.684 388.400,271.031 388.400 C 271.379 388.400,272.324 387.686,273.131 386.813 C 275.383 384.379,275.600 384.080,275.600 383.417 C 275.600 383.078,275.780 382.800,276.000 382.800 C 276.738 382.800,276.409 381.573,275.400 380.564 C 274.850 380.014,274.400 379.739,274.400 379.953 M272.800 380.767 C 272.800 380.968,273.021 381.207,273.290 381.297 C 273.565 381.388,272.492 382.731,270.847 384.354 C 269.234 385.945,268.022 387.355,268.154 387.488 C 268.287 387.620,268.732 387.339,269.144 386.864 C 269.557 386.389,270.104 386.000,270.360 386.000 C 271.028 386.000,273.600 383.338,273.600 382.647 C 273.600 382.328,273.823 381.992,274.096 381.901 C 274.457 381.781,274.411 381.554,273.925 381.068 C 273.178 380.321,272.800 380.220,272.800 380.767 M278.000 383.600 C 278.000 384.040,278.180 384.400,278.400 384.400 C 278.620 384.400,278.800 384.040,278.800 383.600 C 278.800 383.160,278.620 382.800,278.400 382.800 C 278.180 382.800,278.000 383.160,278.000 383.600 M251.600 384.000 C 251.600 384.220,251.960 384.400,252.400 384.400 C 252.840 384.400,253.200 384.220,253.200 384.000 C 253.200 383.780,252.840 383.600,252.400 383.600 C 251.960 383.600,251.600 383.780,251.600 384.000 M254.800 384.800 C 254.800 385.020,255.340 385.200,256.000 385.200 C 256.660 385.200,257.200 385.020,257.200 384.800 C 257.200 384.580,256.660 384.400,256.000 384.400 C 255.340 384.400,254.800 384.580,254.800 384.800 M275.500 388.066 C 273.913 389.847,274.145 390.281,275.800 388.627 C 276.570 387.857,277.200 387.131,277.200 387.013 C 277.200 386.500,276.519 386.922,275.500 388.066 M270.400 391.200 C 270.400 391.420,270.760 391.600,271.200 391.600 C 271.640 391.600,272.000 391.420,272.000 391.200 C 272.000 390.980,271.640 390.800,271.200 390.800 C 270.760 390.800,270.400 390.980,270.400 391.200 " stroke="none" fill="#2c90f0" fill-rule="evenodd"></path></g></svg>